<svg height="261.67543" viewbox="0 0 1835 261.67543" width="1835" xmlns="http://www.w3.org/2000/svg"><path d="M861.54527,4.46782c40.44244,0,93.1145,3.82685,119.45388,11.47508,22.76727,6.6106,28.86451,23.58545,28.44722,38.5636-.424,14.9673-12.21333,46.89727-68.26378,87.6513-54.3546,39.524-103.26885,61.36609-169.391,85.09648-41.71993,14.98086-100.92124,29.01346-140.322,34.42115,94.32552-29.01211,119.54466-40.21084,176.50145-70.11563,35.52646-18.656,62.45113-39.83425,94.05325-70.57215,41.64131-40.49258,48.46729-66.63423,48.89673-75.11691.75586-14.8007-1.52669-23.8713-19.85073-30.88963-15.459-5.91161-69.525-10.51329-69.525-10.51329" fill="#14377d"></path><path d="M861.54527,4.46782c40.44244,0,93.1145,3.82685,119.45388,11.47508,22.76727,6.6106,28.86451,23.58545,28.44722,38.5636-.424,14.9673-12.21333,46.89727-68.26378,87.6513-54.3546,39.524-103.26885,61.36609-169.391,85.09648-41.71993,14.98086-100.92124,29.01346-140.322,34.42115,91.48761-21.181,127.35817-34.74219,185.53408-58.74216,41.37855-17.05886,109.84291-55.77011,134.67321-78.53195,42.339-38.8169,49.459-60.96374,48.90491-69.422C999.834,43.5909,993.50649,26.68105,975.0022,20.829,924.5897,4.89319,861.54527,4.46782,861.54527,4.46782" fill="#14377d"></path><path d="M396.10239,6.46469c-16.69041,3.72118-64.59281,17.37043-85.02334,24.39419-26.36381,9.0584-68.17173,27.17387-95.78451,41.81063-27.61548,14.63678-53.04189,29.2749-76.12884,46.93114-23.61931,18.07077-45.712,37.171-61.935,57.38618-8.48542,10.56341-20.2612,30.27191-19.49854,47.84958.936,21.605,17.78493,29.745,36.18893,36.01284,0,0-46.51662-.36576-58.40353-32.44338-11.88145-32.0844,63.13932-115.03922,94.33778-129.424,31.19441-14.374,157.46892-69.6835,157.46892-69.6835Z" fill="#14377d"></path><path d="M396.32657,5.70664c-71.31719,9.02862-96.46319,13.72918-170.26748,40.88408C149.57671,74.73587,111.74462,96.93959,76.83173,120.93144,30.43025,152.82078-.61788,187.2067.00933,213.69106.73,244.35175,32.43917,261.39163,93.77,261.64089c-41.18481-8.76038-49.9208-32.12369-45.34624-53.44962,4.72225-22.04118,34.5214-60.83236,82.36827-92.91811C181.30891,81.37084,208.41234,67.03344,257.25758,47.119c72.87093-29.71514,139.069-41.41238,139.069-41.41238" fill="#14377d"></path><polygon fill="#14377d" points="184.092 235.17 184.092 5.184 253.738 5.184 253.738 181.444 340.314 181.444 340.314 235.17 184.092 235.17"></polygon><path d="M495.83766,150.49664V102.26776h136.846q.17065,2.35706.2628,5.18553.08737,2.82644.08669,8.32555,0,59.38155-34.82347,92.13649-34.81943,32.75292-98.00883,32.75224-31.07043,0-55.24448-8.40413a124.27571,124.27571,0,0,1-43.20185-25.68513,116.74062,116.74062,0,0,1-38.225-86.24385q0-25.763,9.77365-47.36327,9.77365-21.59958,29.1503-38.88194A131.91756,131.91756,0,0,1,446.52778,8.63982,162.52048,162.52048,0,0,1,500.20089,0q37.526,0,66.41617,13.35258a126.0509,126.0509,0,0,1,48.61359,39.74483l-60.39483,26.078Q544.00961,65.82551,530.48634,59.303a68.89094,68.89094,0,0,0-30.28545-6.51984q-31.24722,0-49.22318,18.77383Q432.99907,90.3301,432.9991,122.8473q0,32.83621,17.97861,51.68454,17.97664,18.85237,49.22318,18.851,26.52907,0,44.24763-11.70264,17.71651-11.702,20.68386-31.18358Z" fill="#14377d"></path><polygon fill="#14377d" points="675.624 235.17 675.624 5.184 832.195 5.184 832.195 55.611 743.523 55.611 743.523 95.513 827.132 95.513 827.132 144.841 743.523 144.841 743.523 183.643 832.195 183.643 832.195 235.17 675.624 235.17"></polygon><path d="M1155.53042,75.96017q-.45118,1.398-.95231,2.79732-10.47882,26.30555-41.51133,27.61277-1.35318,0-2.65642-.04471-40.55966-5.50454-42.11275-42.36737.1017-1.48942.252-2.97884,8.37161-35.91258,49.131-35.1933,30.02811,4.42355,38.15179,30.81785h-22.71171a14.82585,14.82585,0,0,0-1.00241-1.48874q-8.17256-11.46019-23.21159-9.882-20.10613,4.7385-18.65055,23.3728.10156.72134.252,1.444,5.663,18.27125,26.72136,16.6931,10.27556-2.43631,15.39-10.78287Z" fill="#14377d"></path><path d="M1168.51375,75.32784q2.45659-25.80774,30.7812-30.59162.45317-.04266.9022-.08939,31.68415.36166,37.19949,28.47025a16.478,16.478,0,0,1,.10021,1.80573q-2.25543,28.19931-33.439,31.44771h-1.654q-31.235-2.88536-33.89-31.04268m19,.22621a15.73828,15.73828,0,0,0,.15031,2.16607q3.2084,12.58788,17.54652,12.09141,9.77775-2.07461,12.63467-10.69343,2.355-13.21986-11.63085-17.77681a18.324,18.324,0,0,0-3.61014-.27092q-14.23774,1.62351-15.09051,14.48368" fill="#14377d"></path><path d="M1270.48345,104.83667h-18.09791V46.13651h17.29592v7.85008a19.46251,19.46251,0,0,1,6.96959-6.4521,24.63532,24.63532,0,0,1,19.09893-1.1284,21.04249,21.04249,0,0,1,9.77633,7.98689q1.35332-1.21917,2.758-2.437a30.468,30.468,0,0,1,9.07463-5.54992,28.45719,28.45719,0,0,1,15.54038-.63126,19.09814,19.09814,0,0,1,12.68336,8.12236,22.37868,22.37868,0,0,1,3.159,12.22689v38.71259h-18.74943V73.02727a32.99061,32.99061,0,0,0-.20191-3.65479,12.09346,12.09346,0,0,0-1.1514-4.42152,6.29011,6.29011,0,0,0-4.21288-3.38385,16.13881,16.13881,0,0,0-6.11485-.27094,9.27734,9.27734,0,0,0-7.2703,5.00807,15.208,15.208,0,0,0-1.35323,6.723v31.8094h-18.90115V73.02727a33.31539,33.31539,0,0,0-.19918-3.65479,12.7328,12.7328,0,0,0-1.104-4.42152,6.29886,6.29886,0,0,0-4.36055-3.42992,14.9997,14.9997,0,0,0-6.11609-.18016,9.37924,9.37924,0,0,0-7.17009,4.96336,15.169,15.169,0,0,0-1.35323,6.723Z" fill="#14377d"></path><path d="M1386.68933,104.83667h-18.09791V46.13651h17.29592v7.85008a19.46177,19.46177,0,0,1,6.96959-6.4521,24.6353,24.6353,0,0,1,19.09893-1.1284,21.04189,21.04189,0,0,1,9.77625,7.98689q1.3533-1.21917,2.758-2.437a30.468,30.468,0,0,1,9.07463-5.54992,28.45716,28.45716,0,0,1,15.54037-.63126,19.10088,19.10088,0,0,1,12.68477,8.12236,22.39016,22.39016,0,0,1,3.15772,12.22689v38.71259h-18.74952V73.02727a32.99062,32.99062,0,0,0-.2019-3.65479,12.09208,12.09208,0,0,0-1.1514-4.42152,6.28682,6.28682,0,0,0-4.21288-3.38385,16.13882,16.13882,0,0,0-6.11485-.27094,9.27721,9.27721,0,0,0-7.27022,5.00807,15.20917,15.20917,0,0,0-1.35331,6.723v31.8094h-18.90115V73.02727a32.99176,32.99176,0,0,0-.1991-3.65479,12.73114,12.73114,0,0,0-1.1041-4.42152,6.29888,6.29888,0,0,0-4.36055-3.42992,14.99935,14.99935,0,0,0-6.116-.18016,9.3794,9.3794,0,0,0-7.17018,4.96336,15.17028,15.17028,0,0,0-1.35314,6.723Z" fill="#14377d"></path><path d="M1523.34951,46.13583H1542V104.836H1524.253V96.98592a19.28109,19.28109,0,0,1-8.17259,6.9479,27.23121,27.23121,0,0,1-15.33979,1.62421,20.53076,20.53076,0,0,1-13.53688-7.4437,21.93829,21.93829,0,0,1-4.011-13.31057V46.13583h19.40236V77.98995a27.768,27.768,0,0,0,.10021,3.33918,13.21644,13.21644,0,0,0,1.10262,4.51226,6.50815,6.50815,0,0,0,4.81313,3.65479,16.10329,16.10329,0,0,0,6.56711,0,9.09831,9.09831,0,0,0,6.818-5.00806,15.11736,15.11736,0,0,0,1.35331-6.49817Z" fill="#14377d"></path><path d="M1581.00726,104.83667h-18.70074V46.13651h18.09916l-.25052,7.85008a19.888,19.888,0,0,1,8.121-6.90318,26.8286,26.8286,0,0,1,15.44132-1.67026,19.827,19.827,0,0,1,13.68586,7.80673,21.98255,21.98255,0,0,1,3.71035,12.9042v38.71259h-19.05014V73.02727q0-1.715-.15031-3.38387a12.61706,12.61706,0,0,0-1.15421-4.51226,6.47765,6.47765,0,0,0-4.66134-3.6101,17.04838,17.04838,0,0,0-6.86922-.04469,9.24534,9.24534,0,0,0-6.86807,5.008,14.417,14.417,0,0,0-1.35314,6.54287Z" fill="#14377d"></path><path d="M1657.71135,40.72178h-19.10157V27.05086h19.10157Zm0,64.11462h-19.10157V46.13622h19.10157Z" fill="#14377d"></path><polygon fill="#14377d" points="1680.923 58.995 1672.801 58.995 1672.801 46.135 1680.923 46.135 1680.923 27.05 1700.424 27.05 1700.424 46.135 1709.098 46.135 1709.098 58.995 1700.424 58.995 1700.424 104.837 1680.923 104.837 1680.923 58.995"></polygon><polygon fill="#14377d" points="1759.832 123.878 1740.479 123.878 1750.306 101.227 1726.391 46.135 1747.549 46.135 1759.93 80.336 1773.818 46.135 1794.474 46.135 1759.832 123.878"></polygon><path d="M1155.54233,190.42773q-.44511,1.3797-.93883,2.75939-10.33447,25.94387-40.9396,27.23347-1.335,0-2.62121-.04606-39.99882-5.42529-41.53291-41.78355.09958-1.4691.24788-2.93684,8.25576-35.42084,48.45513-34.70967,29.6176,4.36054,37.62752,30.39247h-22.39877a14.7505,14.7505,0,0,0-.98893-1.46842q-8.06069-11.30166-22.89187-9.74521-19.82772,4.67349-18.39317,23.05174.0976.71118.24655,1.42372,5.58587,18.02131,26.35294,16.46416,10.13741-2.40378,15.18-10.6352Z" fill="#14377d"></path><path d="M1167.16,161.01344h17.84987v7.83247a16.27589,16.27589,0,0,1,5.88459-6.18659,20.172,20.172,0,0,1,10.48077-2.53587v15.753h-1.58225a23.16807,23.16807,0,0,0-6.5266.84529,8.71588,8.71588,0,0,0-4.30093,2.58058,9.32215,9.32215,0,0,0-1.97779,4.00563,30.30152,30.30152,0,0,0-.59463,6.89642v28.7019H1167.16Z" fill="#14377d"></path><path d="M1254.67445,202.1316h20.86679q-11.57194,20.20158-36.68745,17.84453c-.26557-.03115-.512-.061-.74238-.09076q-30.01384-7.82907-27.09524-35.86517a28.94911,28.94911,0,0,1,2.67131-7.254q16.11739-24.296,45.63607-14.59613,13.74613,6.36608,17.552,19.802a44.47807,44.47807,0,0,1,1.72983,13.973h-48.60271l.29665.9794a11.17651,11.17651,0,0,0,5.98339,6.76367,20.47531,20.47531,0,0,0,8.35531,1.64723,15.30115,15.30115,0,0,0,10.03645-3.2037m-25.26512-18.24551h30.112a13.66837,13.66837,0,0,0-7.95977-7.92052,22.50081,22.50081,0,0,0-14.24123-.17881,11.53889,11.53889,0,0,0-7.911,8.09933" fill="#14377d"></path><path d="M1338.33284,218.90611v-6.45074a26.171,26.171,0,0,1-19.82775,6.807q-.6929,0-1.38307-.04335-29.02627-4.85025-29.12322-31.37186V187.579q4.54758-26.47624,34.26542-27.36623a21.75692,21.75692,0,0,1,15.524,7.25269V142.19073H1356.726v76.71538Zm-31.44636-29.32367q.83911,11.74668,13.64651,14.01771a17.8,17.8,0,0,0,2.12677.22216q13.89037-.62176,15.772-13.03831a6.879,6.879,0,0,0,.04879-1.42507q-1.43468-12.99225-15.921-14.10576-14.43691,1.335-15.673,14.32927" fill="#14377d"></path><path d="M1392.02782,155.6743h-18.83749v-13.484h18.83749Zm0,63.23276h-18.83749V161.01425h18.83749Z" fill="#14377d"></path><polygon fill="#14377d" points="1414.474 173.696 1406.464 173.696 1406.464 161.014 1414.474 161.014 1414.474 142.19 1433.707 142.19 1433.707 161.014 1442.261 161.014 1442.261 173.696 1433.707 173.696 1433.707 218.907 1414.474 218.907 1414.474 173.696"></polygon><path d="M1491.99724,142.19018h20.96551v47.30231a12.62763,12.62763,0,0,0,.04878,1.9588,16.22368,16.22368,0,0,0,1.482,6.31935,7.89625,7.89625,0,0,0,3.85669,3.82683,11.6946,11.6946,0,0,0,5.53907.89,11.05353,11.05353,0,0,0,5.38875-1.55783,8.5818,8.5818,0,0,0,3.3621-4.22779,19.97363,19.97363,0,0,0,1.13784-7.20935V142.19018h20.81536V190.205a36.61222,36.61222,0,0,1-1.03912,8.67776q-2.621,11.259-13.44741,17.26611a40.58564,40.58564,0,0,1-24.62311,3.247q-12.214-1.86937-18.7887-11.34773a32.73982,32.73982,0,0,1-4.69772-17.84318Z" fill="#14377d"></path><path d="M1585.83974,218.90665H1567.3978v-57.8928h17.85l-.248,7.74306a19.59931,19.59931,0,0,1,8.01-6.80837,26.4495,26.4495,0,0,1,15.22867-1.64723,19.55017,19.55017,0,0,1,13.49751,7.69836,21.67412,21.67412,0,0,1,3.65892,12.72675v38.18023h-18.7887V187.53478q0-1.69056-.14767-3.3378a12.45165,12.45165,0,0,0-1.13652-4.45,6.39367,6.39367,0,0,0-4.599-3.56,16.80166,16.80166,0,0,0-6.77447-.04335,9.10947,9.10947,0,0,0-6.77315,4.939,14.22046,14.22046,0,0,0-1.33562,6.4521Z" fill="#14377d"></path><path d="M1659.71072,155.6743h-18.83749v-13.484h18.83749Zm0,63.23276h-18.83749V161.01425h18.83749Z" fill="#14377d"></path><path d="M1671.971,189.80474q2.42211-25.45416,30.35862-30.17167c.29666-.02845.5948-.05824.89-.08805q31.24734.35559,36.68745,28.07876a16.33833,16.33833,0,0,1,.10037,1.78q-2.22715,27.81326-32.97991,31.01695h-1.63227q-30.80435-2.84878-33.42423-30.616m18.74009.22216a15.51284,15.51284,0,0,0,.1475,2.13625q3.16376,12.41517,17.30543,11.92616,9.64157-2.04617,12.45988-10.54715,2.32464-13.03695-11.471-17.533a18.1148,18.1148,0,0,0-3.55987-.26551q-14.04279,1.60117-14.88191,14.28322" fill="#14377d"></path><path d="M1769.96752,218.90665h-18.44195v-57.8928h17.85l-.248,7.74306a19.59928,19.59928,0,0,1,8.01-6.80837,26.44952,26.44952,0,0,1,15.22867-1.64723,19.55017,19.55017,0,0,1,13.49752,7.69836,21.67419,21.67419,0,0,1,3.65892,12.72675v38.18023h-18.7887V187.53478q0-1.69056-.14767-3.3378a12.45165,12.45165,0,0,0-1.13652-4.45,6.39367,6.39367,0,0,0-4.599-3.56,16.80166,16.80166,0,0,0-6.77447-.04335,9.10948,9.10948,0,0,0-6.77314,4.939,14.22046,14.22046,0,0,0-1.33562,6.4521Z" fill="#14377d"></path><path d="M1801.01636,34.46257A16.992,16.992,0,1,1,1818.00743,51.367a16.835,16.835,0,0,1-16.99107-16.90443m31.38269,0a14.39114,14.39114,0,1,0-14.39162,14.30354,14.41891,14.41891,0,0,0,14.39162-14.30354m-6.32882,9.14648h-3.11969l-5.54849-8.53959h-3.12117v8.53959h-2.601V25.10073h8.06279c3.33647,0,6.58762.909,6.58762,4.897,0,3.64125-2.55763,4.985-5.85193,5.07174Zm-8.66818-11.1405c2.296,0,6.32883.43349,6.32883-2.51417,0-1.90733-2.51563-2.25411-4.50822-2.25411h-4.94178v4.76828Z" fill="#14377d"></path></svg>