<svg viewbox="0 0 1835 261.6754" xmlns="http://www.w3.org/2000/svg"><defs><style>.a{fill:#1b3372;}</style></defs><path class="a" d="M861.5453,4.4678c40.4424,0,93.1145,3.8269,119.4539,11.4751,22.7672,6.6106,28.8645,23.5855,28.4472,38.5636-.424,14.9673-12.2134,46.8973-68.2638,87.6513-54.3546,39.524-103.2689,61.3661-169.3911,85.0965-41.72,14.9808-100.9212,29.0134-140.322,34.4211,94.3256-29.0121,119.5447-40.2108,176.5015-70.1156,35.5265-18.656,62.4511-39.8342,94.0533-70.5722,41.6413-40.4925,48.4672-66.6342,48.8967-75.1169.7558-14.8007-1.5267-23.8713-19.8508-30.89C915.6112,9.07,861.5453,4.4678,861.5453,4.4678"></path><path class="a" d="M861.5453,4.4678c40.4424,0,93.1145,3.8269,119.4539,11.4751,22.7672,6.6106,28.8645,23.5855,28.4472,38.5636-.424,14.9673-12.2134,46.8973-68.2638,87.6513-54.3546,39.524-103.2689,61.3661-169.3911,85.0965-41.72,14.9808-100.9212,29.0134-140.322,34.4211,91.4877-21.181,127.3582-34.7422,185.5341-58.7421,41.3786-17.0589,109.8429-55.77,134.6732-78.532,42.339-38.8169,49.459-60.9637,48.905-69.422-.7478-11.3884-7.0753-28.2982-25.58-34.15C924.59,4.8932,861.5453,4.4678,861.5453,4.4678"></path><path class="a" d="M396.1024,6.4647c-16.69,3.7212-64.5928,17.37-85.0233,24.3942-26.3639,9.0584-68.1718,27.1738-95.7846,41.8106-27.6154,14.6368-53.0418,29.2749-76.1288,46.9312-23.6193,18.0707-45.712,37.171-61.935,57.3861-8.4854,10.5634-20.2612,30.2719-19.4986,47.85.9361,21.605,17.785,29.745,36.189,36.0129,0,0-46.5166-.3658-58.4035-32.4434C23.6361,196.3215,98.6569,113.3666,129.8553,98.9818c31.1944-14.3739,157.469-69.6835,157.469-69.6835Z"></path><path class="a" d="M396.3266,5.7066c-71.3172,9.0287-96.4632,13.7292-170.2675,40.8841C149.5767,74.7359,111.7446,96.94,76.8317,120.9314,30.43,152.8208-.6179,187.2067.0093,213.6911c.7207,30.6607,32.43,47.7,93.7607,47.95-41.1848-8.76-49.9208-32.1237-45.3462-53.45,4.7222-22.0412,34.5214-60.8324,82.3683-92.9181,50.5168-33.9024,77.62-48.24,126.4655-68.1542,72.8709-29.7151,139.069-41.4124,139.069-41.4124"></path><polygon class="a" points="184.092 235.17 184.092 5.184 253.738 5.184 253.738 181.444 340.314 181.444 340.314 235.17 184.092 235.17"></polygon><path class="a" d="M495.8377,150.4966V102.2678h136.846q.1707,2.357.2628,5.1855.0873,2.8264.0867,8.3255,0,59.3815-34.8235,92.1365-34.8193,32.753-98.0088,32.7523-31.07,0-55.2445-8.4042a124.2737,124.2737,0,0,1-43.2018-25.6851,116.74,116.74,0,0,1-38.225-86.2438q0-25.7631,9.7736-47.3633t29.15-38.882A131.9186,131.9186,0,0,1,446.5278,8.64,162.5208,162.5208,0,0,1,500.2009,0q37.526,0,66.4162,13.3526a126.0522,126.0522,0,0,1,48.6136,39.7448l-60.3949,26.078Q544.01,65.8255,530.4863,59.303a68.8909,68.8909,0,0,0-30.2854-6.52q-31.2473,0-49.2232,18.7739-17.9786,18.7731-17.9786,51.29,0,32.8362,17.9786,51.6845,17.9766,18.8525,49.2232,18.8511,26.529,0,44.2476-11.7027,17.7165-11.702,20.6839-31.1836Z"></path><polygon class="a" points="675.624 235.17 675.624 5.184 832.195 5.184 832.195 55.611 743.523 55.611 743.523 95.513 827.132 95.513 827.132 144.841 743.523 144.841 743.523 183.643 832.195 183.643 832.195 235.17 675.624 235.17"></polygon><path class="a" d="M1155.53,75.96q-.4512,1.398-.9523,2.7973-10.4788,26.3055-41.5113,27.6128-1.3531,0-2.6564-.0447-40.56-5.5045-42.1128-42.3674.1017-1.4895.252-2.9789,8.3716-35.9126,49.1311-35.1933,30.0281,4.4236,38.1518,30.8179h-22.7118a14.81,14.81,0,0,0-1.0024-1.4887q-8.1725-11.46-23.2116-9.8821-20.1062,4.7385-18.65,23.3728.1016.7213.252,1.444,5.663,18.2714,26.7214,16.6931,10.2755-2.4363,15.39-10.7828Z"></path><path class="a" d="M1168.5138,75.3278q2.4566-25.8076,30.7811-30.5916.4533-.0426.9023-.0894,31.684.3617,37.1994,28.47a16.4755,16.4755,0,0,1,.1,1.8057q-2.2554,28.1993-33.439,31.4477h-1.654q-31.235-2.8852-33.89-31.0427m19,.2263a15.7388,15.7388,0,0,0,.15,2.166q3.2084,12.5878,17.5465,12.0914,9.7777-2.0745,12.6347-10.6934,2.355-13.22-11.6309-17.7768a18.322,18.322,0,0,0-3.61-.2709q-14.2377,1.6235-15.0905,14.4837"></path><path class="a" d="M1270.4835,104.8367h-18.098v-58.7h17.296v7.85a19.4613,19.4613,0,0,1,6.97-6.4521,24.6351,24.6351,0,0,1,19.0989-1.1284,21.0424,21.0424,0,0,1,9.7763,7.9869q1.3533-1.2192,2.7581-2.437a30.4667,30.4667,0,0,1,9.0746-5.55,28.457,28.457,0,0,1,15.54-.6313,19.0984,19.0984,0,0,1,12.6833,8.1224,22.3788,22.3788,0,0,1,3.1591,12.2269v38.7126h-18.75V73.0273a32.9915,32.9915,0,0,0-.2019-3.6548,12.0935,12.0935,0,0,0-1.1514-4.4215,6.29,6.29,0,0,0-4.2129-3.3839,16.1373,16.1373,0,0,0-6.1148-.2709,9.2772,9.2772,0,0,0-7.27,5.008,15.2086,15.2086,0,0,0-1.3532,6.7231v31.8094h-18.9012V73.0273a33.3113,33.3113,0,0,0-.1992-3.6548,12.7319,12.7319,0,0,0-1.104-4.4215,6.299,6.299,0,0,0-4.3605-3.43,14.9986,14.9986,0,0,0-6.1161-.18,9.3791,9.3791,0,0,0-7.17,4.9633,15.17,15.17,0,0,0-1.3532,6.7231Z"></path><path class="a" d="M1386.6893,104.8367h-18.0979v-58.7h17.2959v7.85a19.4613,19.4613,0,0,1,6.97-6.4521,24.6354,24.6354,0,0,1,19.099-1.1284,21.0416,21.0416,0,0,1,9.7762,7.9869q1.3533-1.2192,2.758-2.437a30.4685,30.4685,0,0,1,9.0747-5.55,28.457,28.457,0,0,1,15.54-.6313,19.1011,19.1011,0,0,1,12.6847,8.1224,22.39,22.39,0,0,1,3.1577,12.2269v38.7126h-18.7495V73.0273a32.9915,32.9915,0,0,0-.2019-3.6548,12.0915,12.0915,0,0,0-1.1514-4.4215,6.2867,6.2867,0,0,0-4.2129-3.3839,16.1373,16.1373,0,0,0-6.1148-.2709,9.277,9.277,0,0,0-7.27,5.008,15.21,15.21,0,0,0-1.3533,6.7231v31.8094h-18.9012V73.0273a32.9926,32.9926,0,0,0-.1991-3.6548,12.73,12.73,0,0,0-1.1041-4.4215,6.299,6.299,0,0,0-4.3605-3.43,14.9981,14.9981,0,0,0-6.116-.18,9.3793,9.3793,0,0,0-7.17,4.9633,15.17,15.17,0,0,0-1.3532,6.7231Z"></path><path class="a" d="M1523.35,46.1358H1542v58.7h-17.747v-7.85a19.28,19.28,0,0,1-8.1726,6.9479,27.2306,27.2306,0,0,1-15.34,1.6242,20.53,20.53,0,0,1-13.5369-7.4437,21.9375,21.9375,0,0,1-4.011-13.3105V46.1358h19.4024V77.99a27.77,27.77,0,0,0,.1,3.3392,13.2169,13.2169,0,0,0,1.1026,4.5123,6.5082,6.5082,0,0,0,4.8131,3.6548,16.1029,16.1029,0,0,0,6.5671,0,9.0982,9.0982,0,0,0,6.818-5.0081A15.1175,15.1175,0,0,0,1523.35,77.99Z"></path><path class="a" d="M1581.0073,104.8367h-18.7008v-58.7h18.0992l-.2505,7.85a19.8873,19.8873,0,0,1,8.121-6.9032,26.8294,26.8294,0,0,1,15.4413-1.67,19.8272,19.8272,0,0,1,13.6858,7.8068,21.9819,21.9819,0,0,1,3.71,12.9042v38.7126h-19.05V73.0273q0-1.7149-.15-3.3839a12.6174,12.6174,0,0,0-1.1542-4.5123,6.4778,6.4778,0,0,0-4.6613-3.61,17.0481,17.0481,0,0,0-6.8692-.0447,9.2457,9.2457,0,0,0-6.8681,5.0081,14.4175,14.4175,0,0,0-1.3531,6.5429Z"></path><path class="a" d="M1657.7113,40.7218H1638.61V27.0509h19.1015Zm0,64.1146H1638.61v-58.7h19.1015Z"></path><polygon class="a" points="1680.923 58.995 1672.801 58.995 1672.801 46.135 1680.923 46.135 1680.923 27.05 1700.424 27.05 1700.424 46.135 1709.098 46.135 1709.098 58.995 1700.424 58.995 1700.424 104.837 1680.923 104.837 1680.923 58.995"></polygon><polygon class="a" points="1759.832 123.878 1740.479 123.878 1750.306 101.227 1726.391 46.135 1747.549 46.135 1759.93 80.336 1773.818 46.135 1794.474 46.135 1759.832 123.878"></polygon><path class="a" d="M1155.5423,190.4277q-.4451,1.38-.9388,2.7594-10.3344,25.9439-40.94,27.2335-1.335,0-2.6212-.0461-39.9988-5.4252-41.5329-41.7835.1-1.4691.2479-2.9369,8.2557-35.4208,48.4551-34.71,29.6177,4.36,37.6275,30.3924h-22.3988a14.74,14.74,0,0,0-.9889-1.4684q-8.0607-11.3016-22.8919-9.7452-19.8276,4.6736-18.3931,23.0517.0975.7113.2465,1.4238,5.5858,18.0213,26.353,16.4641,10.1373-2.4038,15.18-10.6352Z"></path><path class="a" d="M1167.16,161.0134h17.85v7.8325a16.2762,16.2762,0,0,1,5.8846-6.1866,20.1721,20.1721,0,0,1,10.4808-2.5359v15.753h-1.5823a23.1691,23.1691,0,0,0-6.5266.8453,8.7161,8.7161,0,0,0-4.3009,2.5806,9.3225,9.3225,0,0,0-1.9778,4.0056,30.3031,30.3031,0,0,0-.5946,6.8965v28.7018H1167.16Z"></path><path class="a" d="M1254.6745,202.1316h20.8667q-11.5719,20.2015-36.6874,17.8445c-.2656-.0311-.512-.0609-.7424-.0907q-30.0138-7.8291-27.0952-35.8652a28.9493,28.9493,0,0,1,2.6713-7.254q16.1173-24.2959,45.636-14.5962,13.7461,6.3662,17.552,19.802a44.4807,44.4807,0,0,1,1.73,13.973h-48.6028l.2967.9794a11.1769,11.1769,0,0,0,5.9834,6.7637,20.4751,20.4751,0,0,0,8.3553,1.6472,15.3017,15.3017,0,0,0,10.0365-3.2037m-25.2652-18.2455h30.112a13.6682,13.6682,0,0,0-7.96-7.9205,22.5,22.5,0,0,0-14.2412-.1788,11.5389,11.5389,0,0,0-7.911,8.0993"></path><path class="a" d="M1338.3328,218.9061v-6.4507a26.1708,26.1708,0,0,1-19.8277,6.807q-.6929,0-1.3831-.0434-29.0262-4.85-29.1232-31.3718v-.2682q4.5476-26.4764,34.2654-27.3663a21.7573,21.7573,0,0,1,15.524,7.2527V142.1907h18.9378v76.7154Zm-31.4463-29.3237q.8391,11.7468,13.6465,14.0178a17.8028,17.8028,0,0,0,2.1268.2221q13.89-.6217,15.7719-13.0383a6.8792,6.8792,0,0,0,.0488-1.4251q-1.4346-12.9923-15.921-14.1057-14.4369,1.335-15.673,14.3292"></path><path class="a" d="M1392.0278,155.6743H1373.19V142.19h18.8375Zm0,63.2328H1373.19V161.0143h18.8375Z"></path><polygon class="a" points="1414.474 173.696 1406.464 173.696 1406.464 161.014 1414.474 161.014 1414.474 142.19 1433.707 142.19 1433.707 161.014 1442.261 161.014 1442.261 173.696 1433.707 173.696 1433.707 218.907 1414.474 218.907 1414.474 173.696"></polygon><path class="a" d="M1491.9972,142.19h20.9655v47.3023a12.6314,12.6314,0,0,0,.0488,1.9588,16.2224,16.2224,0,0,0,1.482,6.3193,7.8964,7.8964,0,0,0,3.8567,3.8269,11.6953,11.6953,0,0,0,5.539.89,11.0528,11.0528,0,0,0,5.3888-1.5579,8.5813,8.5813,0,0,0,3.3621-4.2278,19.9716,19.9716,0,0,0,1.1378-7.2093V142.19h20.8154V190.205a36.612,36.612,0,0,1-1.0391,8.6778q-2.6211,11.259-13.4474,17.2661a40.5852,40.5852,0,0,1-24.6231,3.247q-12.2141-1.8693-18.7887-11.3477a32.74,32.74,0,0,1-4.6978-17.8432Z"></path><path class="a" d="M1585.84,218.9067h-18.4419V161.0139h17.85l-.2481,7.743a19.6,19.6,0,0,1,8.01-6.8084,26.45,26.45,0,0,1,15.2286-1.6472A19.55,19.55,0,0,1,1621.7359,168a21.6747,21.6747,0,0,1,3.659,12.7267v38.18h-18.7887V187.5348q0-1.6906-.1477-3.3378a12.4516,12.4516,0,0,0-1.1365-4.45,6.3935,6.3935,0,0,0-4.599-3.56,16.8,16.8,0,0,0-6.7745-.0434,9.1093,9.1093,0,0,0-6.7731,4.939,14.2206,14.2206,0,0,0-1.3357,6.4521Z"></path><path class="a" d="M1659.7107,155.6743h-18.8375V142.19h18.8375Zm0,63.2328h-18.8375V161.0143h18.8375Z"></path><path class="a" d="M1671.971,189.8047q2.4222-25.4541,30.3586-30.1716c.2967-.0285.5948-.0583.89-.0881q31.2474.3557,36.6874,28.0788a16.3259,16.3259,0,0,1,.1,1.78q-2.227,27.8132-32.98,31.0169h-1.6323q-30.8043-2.8488-33.4242-30.616m18.74.2222a15.5114,15.5114,0,0,0,.1475,2.1363q3.1638,12.4151,17.3054,11.9261,9.6416-2.0462,12.46-10.5471,2.3247-13.037-11.471-17.533a18.1159,18.1159,0,0,0-3.56-.2655q-14.0427,1.6011-14.8819,14.2832"></path><path class="a" d="M1769.9675,218.9067h-18.4419V161.0139h17.85l-.248,7.743a19.6,19.6,0,0,1,8.01-6.8084,26.45,26.45,0,0,1,15.2287-1.6472A19.55,19.55,0,0,1,1805.8637,168a21.6739,21.6739,0,0,1,3.6589,12.7267v38.18h-18.7887V187.5348q0-1.6906-.1476-3.3378a12.4518,12.4518,0,0,0-1.1366-4.45,6.3933,6.3933,0,0,0-4.5989-3.56,16.8,16.8,0,0,0-6.7745-.0434,9.1094,9.1094,0,0,0-6.7732,4.939,14.2205,14.2205,0,0,0-1.3356,6.4521Z"></path><path class="a" d="M1801.0164,34.4626a16.992,16.992,0,1,1,16.991,16.9044,16.8349,16.8349,0,0,1-16.991-16.9044m31.3827,0a14.3912,14.3912,0,1,0-14.3917,14.3035,14.419,14.419,0,0,0,14.3917-14.3035M1826.07,43.609h-3.12l-5.5484-8.54h-3.1212v8.54h-2.601V25.1007h8.0628c3.3365,0,6.5876.909,6.5876,4.897,0,3.6413-2.5576,4.985-5.8519,5.0718Zm-8.6681-11.14c2.296,0,6.3288.4334,6.3288-2.5142,0-1.9073-2.5156-2.2541-4.5082-2.2541h-4.9418v4.7683Z"></path></svg>