<svg viewbox="0 0 544 256" xmlns="http://www.w3.org/2000/svg" xmlns:v="https://vecta.io/nano" xmlns:xlink="http://www.w3.org/1999/xlink"><g fill="none" stroke="#000"><path d="M2,2H542V254H2Z" stroke-width="4"></path><path d="M24.9,25H520V232H24.9Z" stroke-width="6"></path></g><path d="M111.7,40.1h0l1.6-4.4h2.5l-3,6.9v4.5h-2.3V42.6l-3-6.9h2.6l1.6,4.4Z"></path><use xlink:href="#B"></use><use xlink:href="#C"></use><use xlink:href="#D"></use><use xlink:href="#E"></use><path d="M148.4 40.9a5.07 5.07 0 0 1 .2-1.3 5.55 5.55 0 0 1 .6-.8 1.78 1.78 0 0 1 1-.4 4.87 4.87 0 0 1 1.2-.1 6.27 6.27 0 0 1 1.6.2 1.93 1.93 0 0 1 .9.5 2.18 2.18 0 0 1 .5.8 3.75 3.75 0 0 1 .1 1.1v4.5a2.22 2.22 0 0 0 .1.9 1.85 1.85 0 0 0 .2.7h-2.1c-.1-.1-.1-.3-.2-.4s-.1-.3-.1-.5h0a3.82 3.82 0 0 1-.9.9 2.55 2.55 0 0 1-1.3.2 3 3 0 0 1-1-.2.9.9 0 0 1-.6-.6 2 2 0 0 1-.4-.8 4.55 4.55 0 0 1 0-1.9 3 3 0 0 1 .4-.8 1.79 1.79 0 0 1 .7-.5 10.37 10.37 0 0 1 1-.4l1.2-.3c.3-.1.6-.2.7-.4a1.17 1.17 0 0 0 .2-.7 1.88 1.88 0 0 0-.2-.8 1 1 0 0 0-.8-.3 1 1 0 0 0-1.1 1.1v.2h-2v.1zm3.5 2.2c-.2.1-.3.1-.5.2a2.34 2.34 0 0 0-1 .5 1.22 1.22 0 0 0-.3.9 1.88 1.88 0 0 0 .2.8.68.68 0 0 0 .6.4 1.09 1.09 0 0 0 .5-.1.52.52 0 0 0 .4-.2 1.31 1.31 0 0 0 .3-.4 1.27 1.27 0 0 0 .1-.6v-1.7a1.24 1.24 0 0 1-.3.2zm10.6-4.6l-2.2 8.6h-2.6l-2.2-8.6h2.3l1.2 6.2h0l1.2-6.2zm3.3-3v1.9h-2.2v-1.9zm0 3v8.6h-2.2v-8.6zm3.8 0v1h0a2 2 0 0 1 .9-.9 2.77 2.77 0 0 1 1.3-.3 2.11 2.11 0 0 1 1.6.6 2.55 2.55 0 0 1 .6 1.9v6.4h-2.2v-5.9a1.69 1.69 0 0 0-.2-.9.78.78 0 0 0-.7-.3c-.8 0-1.2.5-1.2 1.4v5.7h-2.2v-8.6h2.1zm12.5 8.2a3.74 3.74 0 0 1-.8 2.5 4.83 4.83 0 0 1-5 .2 2.14 2.14 0 0 1-.8-1.7h2.1a.91.91 0 0 0 .3.7c.1.1.2.1.3.2s.3.1.4.1c.4 0 .8-.1.9-.4a1.8 1.8 0 0 0 .3-1.1v-1.1h0a3 3 0 0 1-.8.8 2 2 0 0 1-1 .3 2.22 2.22 0 0 1-2-1 6.91 6.91 0 0 1-.7-3.4 7.57 7.57 0 0 1 .1-1.5 5.73 5.73 0 0 1 .4-1.4 2.72 2.72 0 0 1 .8-1 2.12 2.12 0 0 1 1.4-.4 2.24 2.24 0 0 1 1 .3 2.39 2.39 0 0 1 .8.9h0v-1h2.1v8zm-4.4-2.8a1.45 1.45 0 0 0 .2.7 2.19 2.19 0 0 0 .3.5.85.85 0 0 0 .6.2 1.42 1.42 0 0 0 .6-.2 1 1 0 0 0 .4-.5 1.88 1.88 0 0 0 .2-.8c0-.3.1-.6.1-1a10.18 10.18 0 0 0-.2-2.2 1.07 1.07 0 0 0-.9-.7 1.42 1.42 0 0 0-.6.2 2.18 2.18 0 0 0-.4.5 8.66 8.66 0 0 0-.2 1v1.5a2.2 2.2 0 0 0-.1.8z"></path><use x="42.7" xlink:href="#E"></use><path d="M194.4,40V38.5h1.1v-1a3,3,0,0,1,.2-1,1,1,0,0,1,.5-.6.91.91,0,0,1,.7-.3,3.08,3.08,0,0,1,1-.1h1.2v1.6h-.4a1.45,1.45,0,0,0-.7.2.76.76,0,0,0-.2.5v.8h1.3v1.5h-1.3v7.1h-2.2V40Z"></path><use xlink:href="#F"></use><path d="M211.9 46.2a1.55 1.55 0 0 1-.8.8 2 2 0 0 1-1.1.2 2.12 2.12 0 0 1-2-1 7.1 7.1 0 0 1-.6-3.4 7.57 7.57 0 0 1 .6-3.5 2.19 2.19 0 0 1 2-1.1 2 2 0 0 1 1.1.3 2 2 0 0 1 .8.8h0v-3.6h2.2v11.4H212l-.1-.9zm-2.1-1.3a.86.86 0 0 0 .9.7 1 1 0 0 0 1-.7 11.12 11.12 0 0 0 0-4.2.9.9 0 0 0-1-.7.8.8 0 0 0-.9.7 10.6 10.6 0 0 0-.2 2.1 4.4 4.4 0 0 0 .2 2.1z"></path><use x="15.7" xlink:href="#F"></use><use x="91.7" xlink:href="#D"></use><path d="M228.7 40.9a5.07 5.07 0 0 1 .2-1.3 5.55 5.55 0 0 1 .6-.8 1.78 1.78 0 0 1 1-.4 4.87 4.87 0 0 1 1.2-.1 6.27 6.27 0 0 1 1.6.2 1.93 1.93 0 0 1 .9.5 2.18 2.18 0 0 1 .5.8 3.75 3.75 0 0 1 .1 1.1v4.5a2.22 2.22 0 0 0 .1.9 1.85 1.85 0 0 0 .2.7H233c-.1-.1-.1-.3-.2-.4s-.1-.3-.1-.5h0a3.82 3.82 0 0 1-.9.9 4.41 4.41 0 0 1-1.3.2 3 3 0 0 1-1-.2.9.9 0 0 1-.6-.6 2 2 0 0 1-.4-.8 4.55 4.55 0 0 1 0-1.9 3 3 0 0 1 .4-.8 1.79 1.79 0 0 1 .7-.5 10.37 10.37 0 0 1 1-.4l1.2-.3c.3-.1.6-.2.7-.4a1.17 1.17 0 0 0 .2-.7 1.88 1.88 0 0 0-.2-.8 1 1 0 0 0-.8-.3 1 1 0 0 0-1.1 1.1v.2h-2v.1zm3.6 2.2c-.2.1-.3.1-.5.2a2.34 2.34 0 0 0-1 .5 1.22 1.22 0 0 0-.3.9 1.88 1.88 0 0 0 .2.8.68.68 0 0 0 .6.4 1.09 1.09 0 0 0 .5-.1.52.52 0 0 0 .4-.2 1.31 1.31 0 0 0 .3-.4 1.27 1.27 0 0 0 .1-.6v-1.7a1.24 1.24 0 0 1-.3.2zm6.6-7.4v11.4h-2.2V35.7zm4 0v11.4h-2.2V35.7zm2.3 12.6a1.22 1.22 0 0 0 .9-.3 1.14 1.14 0 0 0 .3-.8l-2.4-8.6h2.3l1.3 6h0l1.1-6h2.2l-2.1 8a10.72 10.72 0 0 1-.6 1.7 4.37 4.37 0 0 1-.6 1 1.93 1.93 0 0 1-.9.5 4.89 4.89 0 0 1-1.3.1h-.9v-1.6a1.63 1.63 0 0 1 .7 0zm13-12.8v1.9H256v-1.9zm0 3v8.6H256v-8.6zm3.8 0v1h0a2 2 0 0 1 .9-.9 2.77 2.77 0 0 1 1.3-.3 2.11 2.11 0 0 1 1.6.6 2.55 2.55 0 0 1 .6 1.9v6.4h-2.2v-5.9a1.69 1.69 0 0 0-.2-.9.78.78 0 0 0-.7-.3c-.8 0-1.2.5-1.2 1.4v5.7h-2.2v-8.6h2.1z"></path><use x="126.9" xlink:href="#E"></use><use x="151.9" xlink:href="#C"></use><use x="151.9" xlink:href="#D"></use><path d="M290.8 43.8a1.48 1.48 0 0 0 .1.7 1.07 1.07 0 0 0 .2.6 1.31 1.31 0 0 0 .3.4.76.76 0 0 0 .5.2.81.81 0 0 0 .8-.4 3.37 3.37 0 0 0 .4-1.2h2a2.8 2.8 0 0 1-3.1 3.1 3.58 3.58 0 0 1-1.9-.4 2.66 2.66 0 0 1-1-1.1 5.41 5.41 0 0 1-.4-1.5c0-.5-.1-1.1-.1-1.6a9.7 9.7 0 0 1 .1-1.7 3.36 3.36 0 0 1 .5-1.4 3.18 3.18 0 0 1 1-1 4 4 0 0 1 1.8-.4 3.81 3.81 0 0 1 1.6.3 2.84 2.84 0 0 1 1 .9 4.57 4.57 0 0 1 .5 1.4 9.72 9.72 0 0 1 .1 1.8v.5h-4.4v.8zm2.2-2.9a.85.85 0 0 0-.2-.6 1.38 1.38 0 0 0-.3-.4c-.1-.1-.3-.1-.6-.1a1.42 1.42 0 0 0-.6.2c-.1.1-.3.2-.3.4a4.17 4.17 0 0 0-.2.6c0 .2-.1.4-.1.6v.3h2.3a1.7 1.7 0 0 0 0-1zm7.9 5.3a1.55 1.55 0 0 1-.8.8 2 2 0 0 1-1.1.2 2.12 2.12 0 0 1-2-1 7.1 7.1 0 0 1-.6-3.4 7.57 7.57 0 0 1 .6-3.5 2.19 2.19 0 0 1 2-1.1 2 2 0 0 1 1.1.3 2 2 0 0 1 .8.8h0v-3.6h2.2v11.4H301l-.1-.9zm-2.2-1.3a.86.86 0 0 0 .9.7 1 1 0 0 0 1-.7 11.12 11.12 0 0 0 0-4.2.9.9 0 0 0-1-.7.8.8 0 0 0-.9.7 11.13 11.13 0 0 0 0 4.2zm12.7-8.9v2.5h1.3V40h-1.3v4.7a1.17 1.17 0 0 0 .2.7.85.85 0 0 0 .6.2h.5v1.5h-1.4a2.79 2.79 0 0 1-1-.1.92.92 0 0 1-.6-.4 4.88 4.88 0 0 1-.3-.7 3.75 3.75 0 0 1-.1-1.1V40H308v-1.5h1.1V36zm2.1 4.8a3 3 0 0 1 .6-1.4 2.84 2.84 0 0 1 1-.9 3.81 3.81 0 0 1 1.6-.3 3.51 3.51 0 0 1 1.6.3 2.19 2.19 0 0 1 1 .9 3.36 3.36 0 0 1 .5 1.4 11.24 11.24 0 0 1 .2 2 12.31 12.31 0 0 1-.2 2 3 3 0 0 1-.6 1.4 1.89 1.89 0 0 1-1 .8 3.81 3.81 0 0 1-1.6.3 6.27 6.27 0 0 1-1.6-.2 2.72 2.72 0 0 1-1-.8 3.36 3.36 0 0 1-.5-1.4 11.24 11.24 0 0 1-.2-2 6.82 6.82 0 0 1 .2-2.1zm2 3.2a3 3 0 0 0 .2 1 .92.92 0 0 0 .4.6 1.42 1.42 0 0 0 .6.2.86.86 0 0 0 .9-.7 6.33 6.33 0 0 0 .3-2.3 6 6 0 0 0-.3-2.3.93.93 0 0 0-.9-.7.85.85 0 0 0-.6.2c-.2.1-.3.4-.4.6a8.66 8.66 0 0 0-.2 1V44zm9.9-3.1a5.07 5.07 0 0 1 .2-1.3 5.55 5.55 0 0 1 .6-.8 1.78 1.78 0 0 1 1-.4 4.87 4.87 0 0 1 1.2-.1 6.27 6.27 0 0 1 1.6.2 1.93 1.93 0 0 1 .9.5 2.18 2.18 0 0 1 .5.8 3.75 3.75 0 0 1 .1 1.1v4.5a2.22 2.22 0 0 0 .1.9 1.85 1.85 0 0 0 .2.7h-2.1c-.1-.1-.1-.3-.2-.4s-.1-.3-.1-.5h0a3.82 3.82 0 0 1-.9.9 4.41 4.41 0 0 1-1.3.2 3 3 0 0 1-1-.2.9.9 0 0 1-.6-.6 2 2 0 0 1-.4-.8 4.55 4.55 0 0 1 0-1.9 3 3 0 0 1 .4-.8 1.79 1.79 0 0 1 .7-.5 10.37 10.37 0 0 1 1-.4l1.2-.3c.3-.1.6-.2.7-.4a1.17 1.17 0 0 0 .2-.7 1.88 1.88 0 0 0-.2-.8 1 1 0 0 0-.8-.3 1 1 0 0 0-1.1 1.1v.2h-2v.1zm3.5 2.2c-.2.1-.3.1-.5.2a2.34 2.34 0 0 0-1 .5 1.22 1.22 0 0 0-.3.9 1.88 1.88 0 0 0 .2.8.68.68 0 0 0 .6.4 1.09 1.09 0 0 0 .5-.1.52.52 0 0 0 .4-.2 1.31 1.31 0 0 0 .3-.4 1.27 1.27 0 0 0 .1-.6v-1.7c.1 0-.1.1-.3.2zM336 36v2.5h1.3V40H336v4.7a1.17 1.17 0 0 0 .2.7.85.85 0 0 0 .6.2h.5v1.5h-1.4a2.79 2.79 0 0 1-1-.1.92.92 0 0 1-.6-.4 4.88 4.88 0 0 1-.3-.7 3.75 3.75 0 0 1-.1-1.1V40h-1.1v-1.5h1.1V36zm8.4-.3v11.4h-2.2V35.7zm3.6 8.1a1.48 1.48 0 0 0 .1.7 1.07 1.07 0 0 0 .2.6 1.31 1.31 0 0 0 .3.4.76.76 0 0 0 .5.2.81.81 0 0 0 .8-.4 3.37 3.37 0 0 0 .4-1.2h2a2.8 2.8 0 0 1-3.1 3.1 3.58 3.58 0 0 1-1.9-.4 2.66 2.66 0 0 1-1-1.1 5.41 5.41 0 0 1-.4-1.5c0-.5-.1-1.1-.1-1.6a9.7 9.7 0 0 1 .1-1.7 3.36 3.36 0 0 1 .5-1.4 3.18 3.18 0 0 1 1-1 4 4 0 0 1 1.8-.4 3.81 3.81 0 0 1 1.6.3 2.84 2.84 0 0 1 1 .9 4.57 4.57 0 0 1 .5 1.4 9.72 9.72 0 0 1 .1 1.8v.5H348v.8zm2.2-2.9a.85.85 0 0 0-.2-.6 1.38 1.38 0 0 0-.3-.4c-.1-.1-.3-.1-.6-.1a1.42 1.42 0 0 0-.6.2c-.1.1-.3.2-.3.4a4.17 4.17 0 0 0-.2.6c0 .2-.1.4-.1.6v.3h2.3a1.7 1.7 0 0 0 0-1zm3.5 0a5.07 5.07 0 0 1 .2-1.3 5.55 5.55 0 0 1 .6-.8 1.78 1.78 0 0 1 1-.4 4.87 4.87 0 0 1 1.2-.1 6.27 6.27 0 0 1 1.6.2 1.93 1.93 0 0 1 .9.5 2.18 2.18 0 0 1 .5.8 3.75 3.75 0 0 1 .1 1.1v4.5a2.22 2.22 0 0 0 .1.9 1.85 1.85 0 0 0 .2.7H358c-.1-.1-.1-.3-.2-.4s-.1-.3-.1-.5h0a3.82 3.82 0 0 1-.9.9 4.41 4.41 0 0 1-1.3.2 3 3 0 0 1-1-.2.9.9 0 0 1-.6-.6 2 2 0 0 1-.4-.8 4.55 4.55 0 0 1 0-1.9 3 3 0 0 1 .4-.8 1.79 1.79 0 0 1 .7-.5 10.37 10.37 0 0 1 1-.4l1.2-.3c.3-.1.6-.2.7-.4a1.17 1.17 0 0 0 .2-.7 1.88 1.88 0 0 0-.2-.8 1 1 0 0 0-.8-.3 1 1 0 0 0-1.1 1.1v.2h-2v.1zm3.6 2.2c-.2.1-.3.1-.5.2a2.34 2.34 0 0 0-1 .5 1.22 1.22 0 0 0-.3.9 1.88 1.88 0 0 0 .2.8.68.68 0 0 0 .6.4 1.09 1.09 0 0 0 .5-.1.52.52 0 0 0 .4-.2 1.31 1.31 0 0 0 .3-.4 1.27 1.27 0 0 0 .1-.6v-1.7a1.21 1.21 0 0 0-.3.2z"></path><use x="220.5" xlink:href="#E"></use><path d="M371.5 36v2.5h1.3V40h-1.3v4.7a1.17 1.17 0 0 0 .2.7.85.85 0 0 0 .6.2h.5v1.5h-1.4a2.79 2.79 0 0 1-1-.1.92.92 0 0 1-.6-.4 4.88 4.88 0 0 1-.3-.7 3.75 3.75 0 0 1-.1-1.1V40h-1.1v-1.5h1.1V36zm7.2 10.9a3.59 3.59 0 0 1-1-.7 3.13 3.13 0 0 1-.5-1 4.87 4.87 0 0 1-.1-1.2v-.3h2.2v.6c0 .2.1.4.1.6a1.38 1.38 0 0 0 .3.4 2.19 2.19 0 0 0 .5.3v-3.2l-.8-.3a3.72 3.72 0 0 1-1.7-1.2 3.56 3.56 0 0 1-.5-1.9 3.2 3.2 0 0 1 .8-2.3 3.76 3.76 0 0 1 2.2-1v-1.1h1v1.1a5.41 5.41 0 0 1 1.5.4 2.18 2.18 0 0 1 .9.7 4.05 4.05 0 0 1 .5.9 3.4 3.4 0 0 1 .1 1v.2H382a3 3 0 0 0-.2-1 .63.63 0 0 0-.6-.5v3l1.3.5a5.94 5.94 0 0 1 .8.4 1.7 1.7 0 0 1 .6.6 2 2 0 0 1 .4.8 3.75 3.75 0 0 1 .1 1.1 3.39 3.39 0 0 1-.8 2.5 4 4 0 0 1-2.4.9v1.4h-1v-1.4a3.34 3.34 0 0 1-1.5-.3zm.8-8.2a1.44 1.44 0 0 0 .8 1.3v-2.6a1.25 1.25 0 0 0-.8 1.3zm2.5 6.4a1.88 1.88 0 0 0 .2-.8 3 3 0 0 0-.2-1 4.35 4.35 0 0 0-.7-.6v2.8a.67.67 0 0 0 .7-.4zm3.1 2a5.9 5.9 0 0 1 .2-1.4 4.33 4.33 0 0 1 .5-1.2 8.34 8.34 0 0 1 .8-1.2 5.73 5.73 0 0 1 1.1-1.1l.9-.9a1.7 1.7 0 0 0 .6-.6 2.09 2.09 0 0 0 .4-.6c.1-.2.1-.4.2-.6v-.8c0-.9-.4-1.4-1.1-1.4a1.45 1.45 0 0 0-.7.2 1 1 0 0 0-.4.5 6.37 6.37 0 0 0-.2.7v.8h-2.2V39a3.29 3.29 0 0 1 .8-2.4 3.65 3.65 0 0 1 2.7-.8 3.84 3.84 0 0 1 2.6.8 2.82 2.82 0 0 1 .8 2.3 3.08 3.08 0 0 1-.1 1l-.3.9a2.18 2.18 0 0 1-.5.8 3 3 0 0 1-.8.8l-1.3 1.2a6.47 6.47 0 0 0-.8.9 3 3 0 0 0-.4.8h4.3v1.8zm10.2-9.3l-.2 2.6h0a1.56 1.56 0 0 1 .8-.6 4.43 4.43 0 0 1 1.2-.2 3.19 3.19 0 0 1 1.4.3 2 2 0 0 1 .8.8 2.14 2.14 0 0 1 .4 1.2 5.7 5.7 0 0 1 .1 1.3 8.81 8.81 0 0 1-.2 1.7 2.62 2.62 0 0 1-.6 1.3 2.26 2.26 0 0 1-1.1.8 4.84 4.84 0 0 1-1.8.3 4 4 0 0 1-1.7-.3 2 2 0 0 1-1-.8 4.68 4.68 0 0 1-.5-1 3.75 3.75 0 0 1-.1-1v-.3h2.2v.6a1.42 1.42 0 0 0 .2.6c.1.2.2.3.3.5a.85.85 0 0 0 .6.2 1 1 0 0 0 1-.6 3.69 3.69 0 0 0 .3-1.7 4.12 4.12 0 0 0-.1-1.2 1.17 1.17 0 0 0-.2-.7.78.78 0 0 0-.4-.4 1.27 1.27 0 0 0-.6-.1 1.14 1.14 0 0 0-.8.3 1 1 0 0 0-.3.8h-2.1l.4-6.2h5.9v1.8z"></path><use xlink:href="#G"></use><path d="M411.3 46.7a3.75 3.75 0 0 1-.1 1.1 4.65 4.65 0 0 1-.3.9 1.94 1.94 0 0 1-1.6.9v-1.1a.92.92 0 0 0 .6-.4 1.88 1.88 0 0 0 .2-.8v-.2h-.8v-2.5h2.1v2.1zm1.4-7.2a9 9 0 0 1 .4-1.9 2.37 2.37 0 0 1 1.1-1.3 3.68 3.68 0 0 1 2-.5 4 4 0 0 1 1.7.3 2.13 2.13 0 0 1 1.1 1 3.78 3.78 0 0 1 .6 1.7 17.41 17.41 0 0 1 .2 2.6l-.1 2.3a9 9 0 0 1-.4 1.9 2.37 2.37 0 0 1-1.1 1.3 3.68 3.68 0 0 1-2 .5 4 4 0 0 1-1.7-.3 2.44 2.44 0 0 1-1.1-.9 3.78 3.78 0 0 1-.6-1.7 17.41 17.41 0 0 1-.2-2.6 20.08 20.08 0 0 0 .1-2.4zm2.3 4.6a3.09 3.09 0 0 0 .2 1.1.7.7 0 0 0 .4.5 1.27 1.27 0 0 0 .6.1.85.85 0 0 0 .6-.2.92.92 0 0 0 .4-.6 3.78 3.78 0 0 0 .2-1.2c0-.5.1-1.1.1-1.8v-1.2a9.72 9.72 0 0 0-.1-1.8 3.09 3.09 0 0 0-.2-1.1.7.7 0 0 0-.4-.5 1.27 1.27 0 0 0-.6-.1.85.85 0 0 0-.6.2.92.92 0 0 0-.4.6 3.78 3.78 0 0 0-.2 1.2c0 .5-.1 1.1-.1 1.8v1.2a12.13 12.13 0 0 1 .1 1.8z"></path><use x="19.7" xlink:href="#G"></use><path d="M428.4 39.5a9 9 0 0 1 .4-1.9 2.37 2.37 0 0 1 1.1-1.3 3.68 3.68 0 0 1 2-.5 4 4 0 0 1 1.7.3 2.13 2.13 0 0 1 1.1 1 3.78 3.78 0 0 1 .6 1.7 17.41 17.41 0 0 1 .2 2.6l-.1 2.3a9 9 0 0 1-.4 1.9 2.37 2.37 0 0 1-1.1 1.3 3.68 3.68 0 0 1-2 .5 4 4 0 0 1-1.7-.3 2.44 2.44 0 0 1-1.1-.9 3.78 3.78 0 0 1-.6-1.7 17.41 17.41 0 0 1-.2-2.6l.1-2.4zm2.3 4.6a3.09 3.09 0 0 0 .2 1.1.7.7 0 0 0 .4.5 1.27 1.27 0 0 0 .6.1.85.85 0 0 0 .6-.2.92.92 0 0 0 .4-.6 3.78 3.78 0 0 0 .2-1.2c0-.5.1-1.1.1-1.8v-1.2a9.72 9.72 0 0 0-.1-1.8 3.09 3.09 0 0 0-.2-1.1.7.7 0 0 0-.4-.5 1.27 1.27 0 0 0-.6-.1.85.85 0 0 0-.6.2.92.92 0 0 0-.4.6 3.78 3.78 0 0 0-.2 1.2c0 .5-.1 1.1-.1 1.8v1.2c0 .7.1 1.3.1 1.8zM41.2 58.9a5.07 5.07 0 0 1 .2-1.3 5.55 5.55 0 0 1 .6-.8 1.78 1.78 0 0 1 1-.4 4.87 4.87 0 0 1 1.2-.1 6.27 6.27 0 0 1 1.6.2 1.93 1.93 0 0 1 .9.5 2.18 2.18 0 0 1 .5.8 3.75 3.75 0 0 1 .1 1.1v4.5a2.22 2.22 0 0 0 .1.9 1.85 1.85 0 0 0 .2.7h-2.1c-.1-.1-.1-.3-.2-.4s-.1-.3-.1-.5h0a3.82 3.82 0 0 1-.9.9 4.41 4.41 0 0 1-1.3.2 3 3 0 0 1-1-.2.9.9 0 0 1-.6-.6 2 2 0 0 1-.4-.8 4.55 4.55 0 0 1 0-1.9 3 3 0 0 1 .4-.8 1.79 1.79 0 0 1 .7-.5 10.37 10.37 0 0 1 1-.4l1.2-.3c.3-.1.6-.2.7-.4a1.17 1.17 0 0 0 .2-.7 1.88 1.88 0 0 0-.2-.8 1 1 0 0 0-.8-.3 1 1 0 0 0-1.1 1.1v.2h-2v.1zm3.5 2.2c-.2.1-.3.1-.5.2a2.34 2.34 0 0 0-1 .5 1.22 1.22 0 0 0-.3.9 1.88 1.88 0 0 0 .2.8.68.68 0 0 0 .6.4 1.09 1.09 0 0 0 .5-.1.52.52 0 0 0 .4-.2 1.31 1.31 0 0 0 .3-.4 1.27 1.27 0 0 0 .1-.6v-1.7c.1 0-.1.1-.3.2zm6.5-4.6v1h0a2 2 0 0 1 .9-.9 2.77 2.77 0 0 1 1.3-.3 2.11 2.11 0 0 1 1.6.6 2.55 2.55 0 0 1 .6 1.9v6.4h-2.2v-5.9a1.69 1.69 0 0 0-.2-.9.78.78 0 0 0-.7-.3c-.8 0-1.2.5-1.2 1.4v5.7h-2.2v-8.6h2.1zm10.4 7.7a1.55 1.55 0 0 1-.8.8 2 2 0 0 1-1.1.2 2.12 2.12 0 0 1-2-1 7.1 7.1 0 0 1-.6-3.4 7.57 7.57 0 0 1 .6-3.5 2.19 2.19 0 0 1 2-1.1 2 2 0 0 1 1.1.3 2 2 0 0 1 .8.8h0v-3.6h2.2v11.4h-2.1l-.1-.9zm-2.2-1.3a.86.86 0 0 0 .9.7 1 1 0 0 0 1-.7 11.13 11.13 0 0 0 0-4.2.9.9 0 0 0-1-.7.8.8 0 0 0-.9.7 11.13 11.13 0 0 0 0 4.2zm12.2-9.2v3.6h0a3 3 0 0 1 .8-.8 1.8 1.8 0 0 1 1.1-.3 2.19 2.19 0 0 1 2 1.1 7.57 7.57 0 0 1 .6 3.5 7.1 7.1 0 0 1-.6 3.4 2.12 2.12 0 0 1-2 1 3.59 3.59 0 0 1-1.1-.2 2 2 0 0 1-.8-.8h0v.9h-2.1V53.7zm.2 9.2a.9.9 0 0 0 1 .7.8.8 0 0 0 .9-.7 11.13 11.13 0 0 0 0-4.2.86.86 0 0 0-.9-.7 1 1 0 0 0-1 .7 11.12 11.12 0 0 0 0 4.2zm5.7-4a5.07 5.07 0 0 1 .2-1.3 5.55 5.55 0 0 1 .6-.8 1.78 1.78 0 0 1 1-.4 4.87 4.87 0 0 1 1.2-.1 6.27 6.27 0 0 1 1.6.2 1.93 1.93 0 0 1 .9.5 2.18 2.18 0 0 1 .5.8 3.75 3.75 0 0 1 .1 1.1v4.5a2.22 2.22 0 0 0 .1.9 1.85 1.85 0 0 0 .2.7h-2.1c-.1-.1-.1-.3-.2-.4s-.1-.3-.1-.5h0a3.82 3.82 0 0 1-.9.9 4.41 4.41 0 0 1-1.3.2 3 3 0 0 1-1-.2.9.9 0 0 1-.6-.6 2 2 0 0 1-.4-.8 4.55 4.55 0 0 1 0-1.9 3 3 0 0 1 .4-.8 1.79 1.79 0 0 1 .7-.5 10.37 10.37 0 0 1 1-.4l1.2-.3c.3-.1.6-.2.7-.4a1.17 1.17 0 0 0 .2-.7 1.88 1.88 0 0 0-.2-.8 1 1 0 0 0-.8-.3 1 1 0 0 0-1.1 1.1v.2h-2v.1zm3.6 2.2c-.2.1-.3.1-.5.2a2.34 2.34 0 0 0-1 .5 1.22 1.22 0 0 0-.3.9 1.88 1.88 0 0 0 .2.8.68.68 0 0 0 .6.4 1.09 1.09 0 0 0 .5-.1.52.52 0 0 0 .4-.2 1.31 1.31 0 0 0 .3-.4 1.27 1.27 0 0 0 .1-.6v-1.7a1.21 1.21 0 0 0-.3.2zm8.4-2.1c0-.2-.1-.4-.1-.6a1.38 1.38 0 0 0-.3-.4.76.76 0 0 0-.5-.2 1.45 1.45 0 0 0-.7.2 1 1 0 0 0-.4.5 6.37 6.37 0 0 0-.2.9v2.7a2 2 0 0 0 .2.9 1 1 0 0 0 .4.5 1.42 1.42 0 0 0 .6.2.89.89 0 0 0 .8-.5 2.81 2.81 0 0 0 .3-1.5h2.1a4 4 0 0 1-.8 2.6 3 3 0 0 1-2.5.9A5.21 5.21 0 0 1 87 65a1.83 1.83 0 0 1-1-.7 2.59 2.59 0 0 1-.6-1.4 12.73 12.73 0 0 1-.2-2.2 6.87 6.87 0 0 1 .3-2.2 4.58 4.58 0 0 1 .7-1.4 2.59 2.59 0 0 1 1.1-.7 5.9 5.9 0 0 1 1.4-.2 2.87 2.87 0 0 1 2.3.9 3.65 3.65 0 0 1 .8 2.4h-2.1c-.2-.1-.2-.3-.2-.5zm5.8.7h0l2.3-3.2h2.4l-2.5 3.4 2.8 5.2h-2.4l-1.8-3.5-.8 1v2.5H93V53.7h2.2v6zm7.7 2.1a1.48 1.48 0 0 0 .1.7 1.07 1.07 0 0 0 .2.6 1.31 1.31 0 0 0 .3.4.76.76 0 0 0 .5.2.81.81 0 0 0 .8-.4 3.37 3.37 0 0 0 .4-1.2h2a2.8 2.8 0 0 1-3.1 3.1 3.58 3.58 0 0 1-1.9-.4 2.66 2.66 0 0 1-1-1.1 5.41 5.41 0 0 1-.4-1.5c0-.5-.1-1.1-.1-1.6a9.7 9.7 0 0 1 .1-1.7 3.36 3.36 0 0 1 .5-1.4 3.18 3.18 0 0 1 1-1 4 4 0 0 1 1.8-.4 3.81 3.81 0 0 1 1.6.3 2.84 2.84 0 0 1 1 .9 4.57 4.57 0 0 1 .5 1.4 9.72 9.72 0 0 1 .1 1.8v.5H103v.8zm2.2-2.9a.85.85 0 0 0-.2-.6 1.38 1.38 0 0 0-.3-.4c-.1-.1-.3-.1-.6-.1a1.42 1.42 0 0 0-.6.2c-.1.1-.3.2-.3.4a4.17 4.17 0 0 0-.2.6c0 .2-.1.4-.1.6v.3h2.3a3.33 3.33 0 0 0 0-1zm7.9 5.3a1.55 1.55 0 0 1-.8.8 2 2 0 0 1-1.1.2 2.12 2.12 0 0 1-2-1 7.1 7.1 0 0 1-.6-3.4 7.57 7.57 0 0 1 .6-3.5 2.19 2.19 0 0 1 2-1.1 2 2 0 0 1 1.9 1.1h0v-3.6h2.2v11.4h-2.1l-.1-.9zm-2.2-1.3a.86.86 0 0 0 .9.7 1 1 0 0 0 1-.7 11.13 11.13 0 0 0 0-4.2.9.9 0 0 0-1-.7.8.8 0 0 0-.9.7 11.12 11.12 0 0 0 0 4.2zm12.2-9.2v3.6h0a3 3 0 0 1 .8-.8 1.8 1.8 0 0 1 1.1-.3 2.19 2.19 0 0 1 2 1.1 7.57 7.57 0 0 1 .6 3.5 7.1 7.1 0 0 1-.6 3.4 2.12 2.12 0 0 1-2 1 3.59 3.59 0 0 1-1.1-.2 2 2 0 0 1-.8-.8h0v.9H121V53.7zm.2 9.2a.9.9 0 0 0 1 .7.8.8 0 0 0 .9-.7 11.13 11.13 0 0 0 0-4.2.86.86 0 0 0-.9-.7 1 1 0 0 0-1 .7 10.6 10.6 0 0 0-.2 2.1 6.19 6.19 0 0 0 .2 2.1zm6.3 3.4a1.22 1.22 0 0 0 .9-.3 1.14 1.14 0 0 0 .3-.8l-2.4-8.6h2.3l1.3 6h0l1.1-6h2.2l-2.1 8a10.72 10.72 0 0 1-.6 1.7 4.37 4.37 0 0 1-.6 1 1.93 1.93 0 0 1-.9.5 4.89 4.89 0 0 1-1.3.1h-.8v-1.6c.2-.1.4 0 .6 0zM143 54v2.5h1.3V58H143v4.7a1.17 1.17 0 0 0 .2.7.85.85 0 0 0 .6.2h.5v1.5h-1.4a2.79 2.79 0 0 1-1-.1.92.92 0 0 1-.6-.4 4.88 4.88 0 0 1-.3-.7 3.75 3.75 0 0 1-.1-1.1V58h-1.1v-1.5h1.1V54z"></path><use xlink:href="#H"></use><path d="M155.2 61.8a1.48 1.48 0 0 0 .1.7 1.07 1.07 0 0 0 .2.6 1.31 1.31 0 0 0 .3.4.76.76 0 0 0 .5.2.81.81 0 0 0 .8-.4 3.37 3.37 0 0 0 .4-1.2h2a2.8 2.8 0 0 1-3.1 3.1 3.58 3.58 0 0 1-1.9-.4 2.66 2.66 0 0 1-1-1.1 5.41 5.41 0 0 1-.4-1.5c0-.5-.1-1.1-.1-1.6a9.7 9.7 0 0 1 .1-1.7 3.36 3.36 0 0 1 .5-1.4 3.18 3.18 0 0 1 1-1 4 4 0 0 1 1.8-.4 3.81 3.81 0 0 1 1.6.3 2.84 2.84 0 0 1 1 .9 4.57 4.57 0 0 1 .5 1.4 9.72 9.72 0 0 1 .1 1.8v.5h-4.4v.8zm2.2-2.9a.85.85 0 0 0-.2-.6 1.31 1.31 0 0 0-.3-.4c-.1-.1-.3-.1-.6-.1a1.42 1.42 0 0 0-.6.2c-.1.1-.3.2-.3.4a4.17 4.17 0 0 0-.2.6c0 .2-.1.4-.1.6v.3h2.3a3.33 3.33 0 0 0 0-1zm6.9-.9v-1.5h1.1v-1a3 3 0 0 1 .2-1 1 1 0 0 1 .5-.6.91.91 0 0 1 .7-.3 3.08 3.08 0 0 1 1-.1h1.2v1.6h-.4a1.45 1.45 0 0 0-.7.2.76.76 0 0 0-.2.5v.8h1.3v1.5h-1.3v7.1h-2.2V58zm9.9 6.1a2 2 0 0 1-.9.9 2.77 2.77 0 0 1-1.3.3 2.11 2.11 0 0 1-1.6-.6 2.44 2.44 0 0 1-.6-1.8v-6.4h2.2v5.9a1.69 1.69 0 0 0 .2.9.78.78 0 0 0 .7.3c.8 0 1.2-.5 1.2-1.4v-5.7h2.2v8.6h-2.1v-1zm6-10.4v11.4H178V53.7zm4 0v11.4H182V53.7zm5.1 4.3v-1.5h1.1v-1a3 3 0 0 1 .2-1 1 1 0 0 1 .5-.6.91.91 0 0 1 .7-.3 3.08 3.08 0 0 1 1-.1h1.2v1.6h-.4a1.45 1.45 0 0 0-.7.2.76.76 0 0 0-.2.5v.8h1.3v1.5h-1.3v7.1h-2.2V58zm5.5.9a5.07 5.07 0 0 1 .2-1.3 5.55 5.55 0 0 1 .6-.8 1.78 1.78 0 0 1 1-.4 4.87 4.87 0 0 1 1.2-.1 6.27 6.27 0 0 1 1.6.2 1.93 1.93 0 0 1 .9.5 2.18 2.18 0 0 1 .5.8 3.75 3.75 0 0 1 .1 1.1v4.5a2.22 2.22 0 0 0 .1.9 1.85 1.85 0 0 0 .2.7h-2.1c-.1-.1-.1-.3-.2-.4s-.1-.3-.1-.5h0a3.82 3.82 0 0 1-.9.9 2.55 2.55 0 0 1-1.3.2 3 3 0 0 1-1-.2.9.9 0 0 1-.6-.6 2 2 0 0 1-.4-.8 4.55 4.55 0 0 1 0-1.9 3 3 0 0 1 .4-.8 1.79 1.79 0 0 1 .7-.5 10.37 10.37 0 0 1 1-.4l1.2-.3c.3-.1.6-.2.7-.4a1.17 1.17 0 0 0 .2-.7 1.88 1.88 0 0 0-.2-.8 1 1 0 0 0-.8-.3 1 1 0 0 0-1.1 1.1v.2h-2v.1zm3.6 2.2c-.2.1-.3.1-.5.2a2.34 2.34 0 0 0-1 .5 1.22 1.22 0 0 0-.3.9 1.88 1.88 0 0 0 .2.8.68.68 0 0 0 .6.4 1.09 1.09 0 0 0 .5-.1.52.52 0 0 0 .4-.2 1.31 1.31 0 0 0 .3-.4 1.27 1.27 0 0 0 .1-.6v-1.7a1.24 1.24 0 0 1-.3.2zm6.6-7.6v1.9h-2.2v-1.9zm0 3v8.6h-2.2v-8.6z"></path><use xlink:href="#I"></use><use x="66.4" xlink:href="#H"></use><path d="M223.7,58.9a5.07,5.07,0,0,1,.2-1.3,5.55,5.55,0,0,1,.6-.8,1.78,1.78,0,0,1,1-.4,4.87,4.87,0,0,1,1.2-.1,6.27,6.27,0,0,1,1.6.2,1.93,1.93,0,0,1,.9.5,2.18,2.18,0,0,1,.5.8,3.75,3.75,0,0,1,.1,1.1v4.5a2.22,2.22,0,0,0,.1.9,1.85,1.85,0,0,0,.2.7H228c-.1-.1-.1-.3-.2-.4s-.1-.3-.1-.5h0a3.82,3.82,0,0,1-.9.9,4.41,4.41,0,0,1-1.3.2,3,3,0,0,1-1-.2.9.9,0,0,1-.6-.6,2,2,0,0,1-.4-.8,4.55,4.55,0,0,1,0-1.9,3,3,0,0,1,.4-.8,1.79,1.79,0,0,1,.7-.5,10.37,10.37,0,0,1,1-.4l1.2-.3c.3-.1.6-.2.7-.4a1.17,1.17,0,0,0,.2-.7,1.88,1.88,0,0,0-.2-.8,1,1,0,0,0-.8-.3,1,1,0,0,0-1.1,1.1v.2h-2v.1Zm3.6,2.2c-.2.1-.3.1-.5.2a2.34,2.34,0,0,0-1,.5,1.22,1.22,0,0,0-.3.9,1.88,1.88,0,0,0,.2.8.68.68,0,0,0,.6.4,1.09,1.09,0,0,0,.5-.1.52.52,0,0,0,.4-.2,1.31,1.31,0,0,0,.3-.4,1.27,1.27,0,0,0,.1-.6V60.9a1.24,1.24,0,0,1-.3.2Z"></path><use xlink:href="#J"></use><use xlink:href="#K"></use><path d="M256,59c0-.2-.1-.4-.1-.6a1.31,1.31,0,0,0-.3-.4.76.76,0,0,0-.5-.2,1.45,1.45,0,0,0-.7.2,1,1,0,0,0-.4.5,6.37,6.37,0,0,0-.2.9v2.7a2,2,0,0,0,.2.9,1,1,0,0,0,.4.5,1.42,1.42,0,0,0,.6.2.89.89,0,0,0,.8-.5,2.81,2.81,0,0,0,.3-1.5h2.1a4,4,0,0,1-.8,2.6,3,3,0,0,1-2.5.9,5.21,5.21,0,0,1-1.4-.2,1.83,1.83,0,0,1-1-.7,2.59,2.59,0,0,1-.6-1.4,12.73,12.73,0,0,1-.2-2.2,6.87,6.87,0,0,1,.3-2.2,4.58,4.58,0,0,1,.7-1.4,2.59,2.59,0,0,1,1.1-.7,5.9,5.9,0,0,1,1.4-.2,2.87,2.87,0,0,1,2.3.9,3.65,3.65,0,0,1,.8,2.4h-2.1c-.1-.1-.1-.3-.2-.5Z"></path><use xlink:href="#L"></use><path d="M266.9 61.8a1.48 1.48 0 0 0 .1.7 1.07 1.07 0 0 0 .2.6 1.31 1.31 0 0 0 .3.4.76.76 0 0 0 .5.2.81.81 0 0 0 .8-.4 3.37 3.37 0 0 0 .4-1.2h2a2.8 2.8 0 0 1-3.1 3.1 3.58 3.58 0 0 1-1.9-.4 2.66 2.66 0 0 1-1-1.1 5.41 5.41 0 0 1-.4-1.5c0-.5-.1-1.1-.1-1.6a9.7 9.7 0 0 1 .1-1.7 3.36 3.36 0 0 1 .5-1.4 3.18 3.18 0 0 1 1-1 4 4 0 0 1 1.8-.4 3.81 3.81 0 0 1 1.6.3 2.84 2.84 0 0 1 1 .9 4.57 4.57 0 0 1 .5 1.4 9.72 9.72 0 0 1 .1 1.8v.5h-4.4v.8zm2.2-2.9a.85.85 0 0 0-.2-.6 1.31 1.31 0 0 0-.3-.4c-.1-.1-.3-.1-.6-.1a1.42 1.42 0 0 0-.6.2c-.1.1-.3.2-.3.4a4.17 4.17 0 0 0-.2.6c0 .2-.1.4-.1.6v.3h2.3v-1zm7.8 5.3a1.55 1.55 0 0 1-.8.8 2 2 0 0 1-1.1.2 2.12 2.12 0 0 1-2-1 7.1 7.1 0 0 1-.6-3.4 7.57 7.57 0 0 1 .6-3.5 2.19 2.19 0 0 1 2-1.1 2 2 0 0 1 1.9 1.1h0v-3.6h2.2v11.4H277l-.1-.9zm-2.1-1.3a.86.86 0 0 0 .9.7 1 1 0 0 0 1-.7 11.12 11.12 0 0 0 0-4.2.9.9 0 0 0-1-.7.8.8 0 0 0-.9.7 10.6 10.6 0 0 0-.2 2.1 6.19 6.19 0 0 0 .2 2.1zm8.2-9.4v1.9h-2.2v-1.9zm0 3v8.6h-2.2v-8.6z"></path><use x="78" xlink:href="#I"></use><path d="M293.5 58.8a3 3 0 0 1 .6-1.4 2.84 2.84 0 0 1 1-.9 3.81 3.81 0 0 1 1.6-.3 3.51 3.51 0 0 1 1.6.3 2.19 2.19 0 0 1 1 .9 3.36 3.36 0 0 1 .5 1.4 11.24 11.24 0 0 1 .2 2 12.31 12.31 0 0 1-.2 2 3 3 0 0 1-.6 1.4 1.89 1.89 0 0 1-1 .8 3.81 3.81 0 0 1-1.6.3 6.27 6.27 0 0 1-1.6-.2 2.72 2.72 0 0 1-1-.8 3.36 3.36 0 0 1-.5-1.4 11.24 11.24 0 0 1-.2-2 12.48 12.48 0 0 1 .2-2.1zm2.1 3.2a3 3 0 0 0 .2 1 .92.92 0 0 0 .4.6 1.42 1.42 0 0 0 .6.2.86.86 0 0 0 .9-.7 6.33 6.33 0 0 0 .3-2.3 6 6 0 0 0-.3-2.3.93.93 0 0 0-.9-.7.85.85 0 0 0-.6.2c-.2.1-.3.4-.4.6s-.1.6-.2 1v1.2a2.44 2.44 0 0 0 0 1.2zm5.2-4v-1.5h1.1v-1a3 3 0 0 1 .2-1 1 1 0 0 1 .5-.6.91.91 0 0 1 .7-.3 3.08 3.08 0 0 1 1-.1h1.2v1.6h-.5a1.45 1.45 0 0 0-.7.2.76.76 0 0 0-.2.5v.8h1.3v1.5h-1.3v7.1h-2.2V58zm12.2-4v2.5h1.3V58H313v4.7a1.17 1.17 0 0 0 .2.7.85.85 0 0 0 .6.2h.5v1.5h-1.4a2.79 2.79 0 0 1-1-.1.92.92 0 0 1-.6-.4 4.88 4.88 0 0 1-.3-.7 3.75 3.75 0 0 1-.1-1.1V58h-1.1v-1.5h1.1V54z"></path><use x="170.1" xlink:href="#H"></use><use xlink:href="#M"></use><path d="M337.2,61.6a2,2,0,0,0,.1.8,1.42,1.42,0,0,0,.2.6.78.78,0,0,0,.4.4,1.32,1.32,0,0,0,1.4,0,.78.78,0,0,0,.4-.4,1.42,1.42,0,0,0,.2-.6c0-.2.1-.5.1-.8v-8h2.3v8a4.84,4.84,0,0,1-.3,1.8,2.42,2.42,0,0,1-.8,1.1,2.28,2.28,0,0,1-1.2.6,6.15,6.15,0,0,1-1.4.1,6.6,6.6,0,0,1-1.4-.1,6.12,6.12,0,0,1-1.2-.5,3.13,3.13,0,0,1-.8-1.1,5,5,0,0,1-.3-1.9v-8h2.3v8Z"></path><use x="112.2" xlink:href="#J"></use><path d="M354.2,53.5v1.9H352V53.5Zm0,3v8.6H352V56.5Z"></path><use x="149.2" xlink:href="#I"></use><use x="37.4" xlink:href="#M"></use><use x="128.6" xlink:href="#K"></use><path d="M382.4 61.9a1.48 1.48 0 0 0 .1.7 1.42 1.42 0 0 0 .2.6 2.18 2.18 0 0 0 .5.4 1.48 1.48 0 0 0 .7.1 1.68 1.68 0 0 0 1-.3 1.25 1.25 0 0 0 .4-1.1 1.48 1.48 0 0 0-.1-.7 2.19 2.19 0 0 0-.3-.5c-.2-.1-.4-.3-.6-.4a6.89 6.89 0 0 1-1-.4 8.1 8.1 0 0 1-1.3-.6 2.18 2.18 0 0 1-.9-.7 4.7 4.7 0 0 1-.6-.9 5 5 0 0 1-.2-1.2 3.18 3.18 0 0 1 .9-2.5 3.54 3.54 0 0 1 2.6-.8 5.9 5.9 0 0 1 1.4.2 3.7 3.7 0 0 1 1.1.5 2.29 2.29 0 0 1 .7 1 3.19 3.19 0 0 1 .3 1.4v.3h-2.2a2.5 2.5 0 0 0-.3-1.3 1.05 1.05 0 0 0-1-.4c-.3 0-.5 0-.6.1a1.31 1.31 0 0 0-.4.3.76.76 0 0 0-.2.4c0 .2-.1.3-.1.5a2.39 2.39 0 0 0 .2.9 2.12 2.12 0 0 0 1 .7l1.8.8 1.1.6a2.34 2.34 0 0 1 .7.7 1.14 1.14 0 0 1 .3.8 3.08 3.08 0 0 1 .1 1 3 3 0 0 1-1 2.6 5 5 0 0 1-2.9.8 4.25 4.25 0 0 1-2.8-.8 3.19 3.19 0 0 1-.8-2.4v-.5h2.3v.1zm9.3-7.9v2.5h1.3V58h-1.3v4.7a1.17 1.17 0 0 0 .2.7.85.85 0 0 0 .6.2h.5v1.5h-1.4a2.79 2.79 0 0 1-1-.1.92.92 0 0 1-.6-.4 4.88 4.88 0 0 1-.3-.7 3.75 3.75 0 0 1-.1-1.1V58h-1.1v-1.5h1.1V54zm2.2 4.9a5.07 5.07 0 0 1 .2-1.3 5.55 5.55 0 0 1 .6-.8 1.78 1.78 0 0 1 1-.4 4.87 4.87 0 0 1 1.2-.1 6.27 6.27 0 0 1 1.6.2 1.93 1.93 0 0 1 .9.5 2.18 2.18 0 0 1 .5.8 3.75 3.75 0 0 1 .1 1.1v4.5a2.22 2.22 0 0 0 .1.9 1.85 1.85 0 0 0 .2.7h-2.1c-.1-.1-.1-.3-.2-.4s-.1-.3-.1-.5h0a3.82 3.82 0 0 1-.9.9 4.41 4.41 0 0 1-1.3.2 3 3 0 0 1-1-.2.9.9 0 0 1-.6-.6 2 2 0 0 1-.4-.8 4.55 4.55 0 0 1 0-1.9 3 3 0 0 1 .4-.8 1.79 1.79 0 0 1 .7-.5 10.37 10.37 0 0 1 1-.4l1.2-.3c.3-.1.6-.2.7-.4a1.17 1.17 0 0 0 .2-.7 1.88 1.88 0 0 0-.2-.8 1 1 0 0 0-.8-.3 1 1 0 0 0-1.1 1.1v.2h-2v.1zm3.5 2.2c-.2.1-.3.1-.5.2a2.34 2.34 0 0 0-1 .5 1.22 1.22 0 0 0-.3.9 1.88 1.88 0 0 0 .2.8.68.68 0 0 0 .6.4 1.09 1.09 0 0 0 .5-.1.52.52 0 0 0 .4-.2 1.31 1.31 0 0 0 .3-.4 1.27 1.27 0 0 0 .1-.6v-1.7c.1 0-.1.1-.3.2z"></path><use x="195" xlink:href="#I"></use><path d="M408.5 61.8a1.48 1.48 0 0 0 .1.7 1.07 1.07 0 0 0 .2.6 1.38 1.38 0 0 0 .3.4.76.76 0 0 0 .5.2.81.81 0 0 0 .8-.4 3.37 3.37 0 0 0 .4-1.2h2a2.8 2.8 0 0 1-3.1 3.1 3.58 3.58 0 0 1-1.9-.4 2.66 2.66 0 0 1-1-1.1 5.41 5.41 0 0 1-.4-1.5c0-.5-.1-1.1-.1-1.6a9.7 9.7 0 0 1 .1-1.7 3.36 3.36 0 0 1 .5-1.4 3.18 3.18 0 0 1 1-1 4 4 0 0 1 1.8-.4 3.81 3.81 0 0 1 1.6.3 2.84 2.84 0 0 1 1 .9 4.57 4.57 0 0 1 .5 1.4 9.72 9.72 0 0 1 .1 1.8v.5h-4.4v.8zm2.2-2.9a.85.85 0 0 0-.2-.6 1.38 1.38 0 0 0-.3-.4c-.1-.1-.3-.1-.6-.1a1.42 1.42 0 0 0-.6.2c-.1.1-.3.2-.3.4a4.17 4.17 0 0 0-.2.6c0 .2-.1.4-.1.6v.3h2.3a1.7 1.7 0 0 0 0-1zm5.1 3.7a1.06 1.06 0 0 0 1.2 1.2 1.14 1.14 0 0 0 .8-.3 1 1 0 0 0 .3-.8.85.85 0 0 0-.2-.6c-.2-.1-.3-.3-.6-.3l-1.6-.6a2.84 2.84 0 0 1-1.4-.9 2.46 2.46 0 0 1-.5-1.5 3 3 0 0 1 .2-1 1.56 1.56 0 0 1 .6-.8l1-.6a5.9 5.9 0 0 1 1.4-.2 3.4 3.4 0 0 1 2.2.6 2.14 2.14 0 0 1 .7 1.8v.4h-2a2.51 2.51 0 0 0-.2-1c-.1-.2-.4-.3-.8-.3a1.45 1.45 0 0 0-.7.2.91.91 0 0 0-.3.7 1.42 1.42 0 0 0 .2.6c.1.2.4.3.8.4l1.3.4a2.75 2.75 0 0 1 1.5.9 2.41 2.41 0 0 1 .4 1.5 3.78 3.78 0 0 1-.2 1.2 2.7 2.7 0 0 1-.7.8 3.13 3.13 0 0 1-1 .5 5.28 5.28 0 0 1-1.3.1 6.05 6.05 0 0 1-1.5-.2 3.13 3.13 0 0 1-1-.5 1.93 1.93 0 0 1-.5-.9 3.75 3.75 0 0 1-.1-1.1V62h2v.6zm14.7-6.2a1.42 1.42 0 0 0-.2-.6 1.76 1.76 0 0 0-.4-.5 1.42 1.42 0 0 0-.6-.2 1.18 1.18 0 0 0-1.2.9 10 10 0 0 0-.4 3.1 11.48 11.48 0 0 0 .1 1.9 5.21 5.21 0 0 0 .2 1.4 1.93 1.93 0 0 0 .5.9 1.14 1.14 0 0 0 .8.3 1.09 1.09 0 0 0 .5-.1c.2-.1.3-.2.5-.3a1.54 1.54 0 0 0 .4-.6 2 2 0 0 0 .1-.8v-1.2h-1.5v-1.7h3.7v6.2h-1.7V64h0a2.51 2.51 0 0 1-2.4 1.3 2.86 2.86 0 0 1-1.7-.4 2.19 2.19 0 0 1-1-1.1 4.78 4.78 0 0 1-.5-1.9 20.92 20.92 0 0 1-.1-2.6 16.86 16.86 0 0 1 .2-2.5 4.78 4.78 0 0 1 .6-1.8 2.54 2.54 0 0 1 1.2-1.1 4.78 4.78 0 0 1 1.8-.4 3.37 3.37 0 0 1 2.7.9 3.65 3.65 0 0 1 .8 2.7h-2.2a6.37 6.37 0 0 0-.2-.7z"></path><use x="318.9" xlink:href="#B" y="18"></use><path d="M448.7,56.5l-2.2,8.6h-2.6l-2.2-8.6H444l1.2,6.2h0l1.2-6.2Zm2.8,5.3a1.48,1.48,0,0,0,.1.7,1.07,1.07,0,0,0,.2.6,1.38,1.38,0,0,0,.3.4.76.76,0,0,0,.5.2.81.81,0,0,0,.8-.4,3.37,3.37,0,0,0,.4-1.2h2a2.8,2.8,0,0,1-3.1,3.1,3.58,3.58,0,0,1-1.9-.4,2.66,2.66,0,0,1-1-1.1,5.41,5.41,0,0,1-.4-1.5c0-.5-.1-1.1-.1-1.6a9.7,9.7,0,0,1,.1-1.7,3.36,3.36,0,0,1,.5-1.4,3.18,3.18,0,0,1,1-1,4,4,0,0,1,1.8-.4,3.81,3.81,0,0,1,1.6.3,2.84,2.84,0,0,1,1,.9,4.57,4.57,0,0,1,.5,1.4,9.72,9.72,0,0,1,.1,1.8V61h-4.4v.8Zm2.2-2.9a.85.85,0,0,0-.2-.6,1.38,1.38,0,0,0-.3-.4c-.1-.1-.3-.1-.6-.1a1.42,1.42,0,0,0-.6.2c-.1.1-.3.2-.3.4a4.17,4.17,0,0,0-.2.6c0,.2-.1.4-.1.6v.3h2.3a3.33,3.33,0,0,0,0-1Z"></path><use x="197.7" xlink:href="#L"></use><path d="M464.8,56.5v1h0a2,2,0,0,1,.9-.9,2.77,2.77,0,0,1,1.3-.3,2.11,2.11,0,0,1,1.6.6,2.55,2.55,0,0,1,.6,1.9v6.4H467V59.3a1.69,1.69,0,0,0-.2-.9.78.78,0,0,0-.7-.3c-.8,0-1.2.5-1.2,1.4v5.7h-2.2V56.6h2.1Zm8.2,0v.9h0a2.17,2.17,0,0,1,.9-.8,2.38,2.38,0,0,1,1.2-.3,2,2,0,0,1,1.3.4,1.83,1.83,0,0,1,.7,1h0a1.65,1.65,0,0,1,.8-1,2.9,2.9,0,0,1,1.4-.3,1.75,1.75,0,0,1,1.6.7,3.31,3.31,0,0,1,.5,1.9v6.3h-2.2v-6a1.55,1.55,0,0,0-.2-.8.78.78,0,0,0-.7-.3.81.81,0,0,0-.8.4,1.61,1.61,0,0,0-.3,1.1v5.7H475v-6a1.55,1.55,0,0,0-.2-.8.78.78,0,0,0-.7-.3.81.81,0,0,0-.8.4,1.61,1.61,0,0,0-.3,1.1v5.7h-2.2V56.9H473Zm12,5.3a1.48,1.48,0,0,0,.1.7,1.07,1.07,0,0,0,.2.6,1.38,1.38,0,0,0,.3.4.76.76,0,0,0,.5.2.81.81,0,0,0,.8-.4,3.37,3.37,0,0,0,.4-1.2h2a2.8,2.8,0,0,1-3.1,3.1,3.58,3.58,0,0,1-1.9-.4,2.66,2.66,0,0,1-1-1.1,5.41,5.41,0,0,1-.4-1.5c0-.5-.1-1.1-.1-1.6a9.7,9.7,0,0,1,.1-1.7,3.36,3.36,0,0,1,.5-1.4,3.18,3.18,0,0,1,1-1,4,4,0,0,1,1.8-.4,3.81,3.81,0,0,1,1.6.3,2.84,2.84,0,0,1,1,.9,4.57,4.57,0,0,1,.5,1.4,9.72,9.72,0,0,1,.1,1.8V61H485v.8Zm2.2-2.9a.85.85,0,0,0-.2-.6,1.38,1.38,0,0,0-.3-.4c-.1-.1-.3-.1-.6-.1a1.42,1.42,0,0,0-.6.2c-.1.1-.3.2-.3.4a4.17,4.17,0,0,0-.2.6c0,.2-.1.4-.1.6v.3h2.3a3.33,3.33,0,0,0,0-1Zm5.6-2.4v1h0a2,2,0,0,1,.9-.9,2.77,2.77,0,0,1,1.3-.3,2.11,2.11,0,0,1,1.6.6,2.55,2.55,0,0,1,.6,1.9v6.4H495V59.3a1.69,1.69,0,0,0-.2-.9.78.78,0,0,0-.7-.3c-.8,0-1.2.5-1.2,1.4v5.7h-2.2V56.6h2.1Z"></path><use x="292.2" xlink:href="#I"></use><path d="M71.5 212.5h0v-7.8h2.1v11.4H71l-2.8-8h0v8h-2.1v-11.4h2.7l2.7 7.8zm3.8-2.6a5.07 5.07 0 0 1 .2-1.3 5.55 5.55 0 0 1 .6-.8 1.54 1.54 0 0 1 1-.4 4.87 4.87 0 0 1 1.2-.1 6.27 6.27 0 0 1 1.6.2 1.93 1.93 0 0 1 .9.5 2.18 2.18 0 0 1 .5.8 3.75 3.75 0 0 1 .1 1.1v4.5a2.22 2.22 0 0 0 .1.9 1.85 1.85 0 0 0 .2.7h-2.1c-.1-.1-.1-.3-.2-.4s-.1-.3-.1-.5h0a3.82 3.82 0 0 1-.9.9 4.41 4.41 0 0 1-1.3.2 3 3 0 0 1-1-.2.9.9 0 0 1-.6-.6 2 2 0 0 1-.4-.8 4.55 4.55 0 0 1 0-1.9 3 3 0 0 1 .4-.8 1.79 1.79 0 0 1 .7-.5 10.37 10.37 0 0 1 1-.4l1.2-.3c.3-.1.6-.2.7-.4a1.17 1.17 0 0 0 .2-.7 1.88 1.88 0 0 0-.2-.8 1 1 0 0 0-.8-.3 1 1 0 0 0-1.1 1.1v.2h-2v.1zm3.6 2.2c-.2.1-.3.1-.5.2a2.34 2.34 0 0 0-1 .5 1.22 1.22 0 0 0-.3.9 1.88 1.88 0 0 0 .2.8.68.68 0 0 0 .6.4 1.09 1.09 0 0 0 .5-.1.52.52 0 0 0 .4-.2 1.31 1.31 0 0 0 .3-.4 1.27 1.27 0 0 0 .1-.6v-1.7a1.24 1.24 0 0 1-.3.2zm7-7.1v2.5h1.3v1.5h-1.3v4.7a1.17 1.17 0 0 0 .2.7.85.85 0 0 0 .6.2h.5v1.5h-1.4a2.79 2.79 0 0 1-1-.1.92.92 0 0 1-.6-.4 4.88 4.88 0 0 1-.3-.7 3.75 3.75 0 0 1-.1-1.1V209h-1.1v-1.5h1.1V205zm4.5-.5v1.9h-2.2v-1.9zm0 3v8.6h-2.2v-8.6zm1.6 2.3a3 3 0 0 1 .6-1.4 2.84 2.84 0 0 1 1-.9 3.81 3.81 0 0 1 1.6-.3 3.51 3.51 0 0 1 1.6.3 2.19 2.19 0 0 1 1 .9 3.36 3.36 0 0 1 .5 1.4 11.24 11.24 0 0 1 .2 2 12.31 12.31 0 0 1-.2 2 3 3 0 0 1-.6 1.4 1.89 1.89 0 0 1-1 .8 3.81 3.81 0 0 1-1.6.3 6.27 6.27 0 0 1-1.6-.2 2.72 2.72 0 0 1-1-.8 3.36 3.36 0 0 1-.5-1.4 11.24 11.24 0 0 1-.2-2 12.48 12.48 0 0 1 .2-2.1zm2.1 3.2a3 3 0 0 0 .2 1 .92.92 0 0 0 .4.6 1.42 1.42 0 0 0 .6.2.86.86 0 0 0 .9-.7 6.33 6.33 0 0 0 .3-2.3 6 6 0 0 0-.3-2.3.93.93 0 0 0-.9-.7.85.85 0 0 0-.6.2 2.09 2.09 0 0 0-.4.6c-.1.3-.1.6-.2 1v1.2a4.82 4.82 0 0 0 0 1.2zm8-5.5v1h0a2 2 0 0 1 .9-.9 2.77 2.77 0 0 1 1.3-.3 2.11 2.11 0 0 1 1.6.6 2.55 2.55 0 0 1 .6 1.9v6.4h-2.2v-5.9a1.69 1.69 0 0 0-.2-.9.78.78 0 0 0-.7-.3c-.8 0-1.2.5-1.2 1.4v5.7H100v-8.6h2.1zm6 2.4a5.07 5.07 0 0 1 .2-1.3 5.55 5.55 0 0 1 .6-.8 1.78 1.78 0 0 1 1-.4 4.87 4.87 0 0 1 1.2-.1 6.27 6.27 0 0 1 1.6.2 1.93 1.93 0 0 1 .9.5 2.18 2.18 0 0 1 .5.8 3.75 3.75 0 0 1 .1 1.1v4.5a2.22 2.22 0 0 0 .1.9 1.85 1.85 0 0 0 .2.7h-2.1c-.1-.1-.1-.3-.2-.4s-.1-.3-.1-.5h0a3.82 3.82 0 0 1-.9.9 4.41 4.41 0 0 1-1.3.2 3 3 0 0 1-1-.2.9.9 0 0 1-.6-.6 2 2 0 0 1-.4-.8 4.55 4.55 0 0 1 0-1.9 3 3 0 0 1 .4-.8 1.79 1.79 0 0 1 .7-.5 10.37 10.37 0 0 1 1-.4l1.2-.3c.3-.1.6-.2.7-.4a1.17 1.17 0 0 0 .2-.7 1.88 1.88 0 0 0-.2-.8 1 1 0 0 0-.8-.3 1 1 0 0 0-1.1 1.1v.2h-2v.1zm3.5 2.2c-.2.1-.3.1-.5.2a2.34 2.34 0 0 0-1 .5 1.22 1.22 0 0 0-.3.9 1.88 1.88 0 0 0 .2.8.68.68 0 0 0 .6.4 1.09 1.09 0 0 0 .5-.1.52.52 0 0 0 .4-.2 1.31 1.31 0 0 0 .3-.4 1.27 1.27 0 0 0 .1-.6v-1.7c.1 0-.1.1-.3.2zm6.7-7.4v11.4H116v-11.4zm10.3 2a1.15 1.15 0 0 0-1.1-.6 1.45 1.45 0 0 0-.7.2c-.2.1-.3.4-.4.8a4.64 4.64 0 0 0-.2 1.4l-.1 2.1.1 2.1a3.5 3.5 0 0 0 .3 1.2 1 1 0 0 0 .5.6 1.42 1.42 0 0 0 .6.2 1.27 1.27 0 0 0 .6-.1 1.76 1.76 0 0 0 .5-.4 4.65 4.65 0 0 0 .3-.9 6.62 6.62 0 0 0 .1-1.5h2.3a10.87 10.87 0 0 1-.1 1.8 6.61 6.61 0 0 1-.5 1.5 3.57 3.57 0 0 1-1.1 1 4.78 4.78 0 0 1-1.8.4 4.14 4.14 0 0 1-2.1-.4 3.45 3.45 0 0 1-1.2-1.2 4.78 4.78 0 0 1-.5-1.9 17.72 17.72 0 0 1-.1-2.4l.1-2.4a8.32 8.32 0 0 1 .5-1.9 3.45 3.45 0 0 1 1.2-1.2 4.14 4.14 0 0 1 2.1-.4 3.36 3.36 0 0 1 1.9.4 3.57 3.57 0 0 1 1.1 1 3.26 3.26 0 0 1 .4 1.3c0 .4.1.9.1 1.3h-2.3a9.33 9.33 0 0 0-.5-2zm6.2.8v1.2h0a3.92 3.92 0 0 1 .8-1 2.14 2.14 0 0 1 1.2-.4h.4v2.1h-.6a1.27 1.27 0 0 0-.6.1c-.2.1-.4.1-.5.3a1 1 0 0 0-.4.5 1.48 1.48 0 0 0-.1.7v5.2h-2.2v-8.6h2zm5.3 5.3a1.48 1.48 0 0 0 .1.7 1.07 1.07 0 0 0 .2.6 1.31 1.31 0 0 0 .3.4.76.76 0 0 0 .5.2.81.81 0 0 0 .8-.4 3.37 3.37 0 0 0 .4-1.2h2a2.8 2.8 0 0 1-3.1 3.1 3.58 3.58 0 0 1-1.9-.4 2.66 2.66 0 0 1-1-1.1 5.41 5.41 0 0 1-.4-1.5c0-.5-.1-1.1-.1-1.6a9.7 9.7 0 0 1 .1-1.7 2.92 2.92 0 0 1 .5-1.4 3.18 3.18 0 0 1 1-1 4 4 0 0 1 1.8-.4 3.81 3.81 0 0 1 1.6.3 2.84 2.84 0 0 1 1 .9 4.57 4.57 0 0 1 .5 1.4 9.72 9.72 0 0 1 .1 1.8v.5h-4.4v.8zm2.2-2.9a.85.85 0 0 0-.2-.6c-.1-.1-.2-.3-.3-.4s-.3-.1-.6-.1a1.42 1.42 0 0 0-.6.2c-.1.1-.3.2-.3.4a4.17 4.17 0 0 0-.2.6c0 .2-.1.4-.1.6v.3h2.3v-1zm7.9 5.3a1.55 1.55 0 0 1-.8.8 2 2 0 0 1-1.1.2 2.12 2.12 0 0 1-2-1 7.1 7.1 0 0 1-.6-3.4 7.57 7.57 0 0 1 .6-3.5 2.19 2.19 0 0 1 2-1.1 2 2 0 0 1 1.9 1.1h0v-3.6h2.2v11.4h-2.1l-.1-.9zm-2.2-1.3a.86.86 0 0 0 .9.7 1 1 0 0 0 1-.7 11.13 11.13 0 0 0 0-4.2.9.9 0 0 0-1-.7.8.8 0 0 0-.9.7 10.6 10.6 0 0 0-.2 2.1 6.19 6.19 0 0 0 .2 2.1zm8.2-9.4v1.9H154v-1.9zm0 3v8.6H154v-8.6z"></path><use xlink:href="#N"></use><use xlink:href="#O"></use><use xlink:href="#P"></use><use xlink:href="#Q"></use><path d="M187.6,209.8a3,3,0,0,1,.6-1.4,2.84,2.84,0,0,1,1-.9,3.81,3.81,0,0,1,1.6-.3,3.51,3.51,0,0,1,1.6.3,2.19,2.19,0,0,1,1,.9,3.36,3.36,0,0,1,.5,1.4,11.24,11.24,0,0,1,.2,2,12.31,12.31,0,0,1-.2,2,3,3,0,0,1-.6,1.4,1.89,1.89,0,0,1-1,.8,3.81,3.81,0,0,1-1.6.3,6.27,6.27,0,0,1-1.6-.2,2.72,2.72,0,0,1-1-.8,3.36,3.36,0,0,1-.5-1.4,11.24,11.24,0,0,1-.2-2l.2-2.1Zm2.1,3.2a3,3,0,0,0,.2,1,.92.92,0,0,0,.4.6,1.42,1.42,0,0,0,.6.2.86.86,0,0,0,.9-.7,6.33,6.33,0,0,0,.3-2.3,6,6,0,0,0-.3-2.3.93.93,0,0,0-.9-.7.85.85,0,0,0-.6.2,2.09,2.09,0,0,0-.4.6c-.1.3-.1.6-.2,1V213Z"></path><use x="20" xlink:href="#P"></use><path d="M212.3 204.7l3 11.4h-2.4l-.5-2.4h-3l-.5 2.4h-2.4l3-11.4zm-.3 7.1l-1.1-5.1h0l-1.1 5.1zm8.6 3.4a1.55 1.55 0 0 1-.8.8 2 2 0 0 1-1.1.2 2.12 2.12 0 0 1-2-1 7.1 7.1 0 0 1-.6-3.4 7.57 7.57 0 0 1 .6-3.5 2.19 2.19 0 0 1 2-1.1 2 2 0 0 1 1.9 1.1h0v-3.6h2.2v11.4h-2.1l-.1-.9zm-2.2-1.3a.86.86 0 0 0 .9.7 1 1 0 0 0 1-.7 11.13 11.13 0 0 0 0-4.2.9.9 0 0 0-1-.7.8.8 0 0 0-.9.7 11.13 11.13 0 0 0 0 4.2zm8.1-6.4v.9h0a2.17 2.17 0 0 1 .9-.8 2.38 2.38 0 0 1 1.2-.3 2 2 0 0 1 1.3.4 1.83 1.83 0 0 1 .7 1h0a1.65 1.65 0 0 1 .8-1 2.9 2.9 0 0 1 1.4-.3 1.75 1.75 0 0 1 1.6.7 3.31 3.31 0 0 1 .5 1.9v6.3h-2.2v-6a1.55 1.55 0 0 0-.2-.8.78.78 0 0 0-.7-.3.81.81 0 0 0-.8.4 1.61 1.61 0 0 0-.3 1.1v5.7h-2.2v-6a1.55 1.55 0 0 0-.2-.8.78.78 0 0 0-.7-.3.81.81 0 0 0-.8.4 1.61 1.61 0 0 0-.3 1.1v5.7h-2.2v-8.6h2.2z"></path><use x="53" xlink:href="#Q"></use><path d="M242.8,207.5v1h0a2,2,0,0,1,.9-.9,2.77,2.77,0,0,1,1.3-.3,2.11,2.11,0,0,1,1.6.6,2.55,2.55,0,0,1,.6,1.9v6.4H245v-5.9a1.69,1.69,0,0,0-.2-.9.78.78,0,0,0-.7-.3c-.8,0-1.2.5-1.2,1.4v5.7h-2.2v-8.6h2.1Z"></path><use x="65.1" xlink:href="#Q"></use><path d="M254.4,213.6a1.06,1.06,0,0,0,1.2,1.2,1.14,1.14,0,0,0,.8-.3,1,1,0,0,0,.3-.8.85.85,0,0,0-.2-.6c-.2-.1-.3-.3-.6-.3l-1.6-.6a2.84,2.84,0,0,1-1.4-.9,2.46,2.46,0,0,1-.5-1.5,3,3,0,0,1,.2-1,1.56,1.56,0,0,1,.6-.8l1-.6a3.18,3.18,0,0,1,1.4-.2,3.4,3.4,0,0,1,2.2.6,2.14,2.14,0,0,1,.7,1.8v.4h-2a2.51,2.51,0,0,0-.2-1c-.1-.2-.4-.3-.8-.3a1.45,1.45,0,0,0-.7.2.91.91,0,0,0-.3.7,1.42,1.42,0,0,0,.2.6c.1.2.4.3.8.4l1.3.4a2.75,2.75,0,0,1,1.5.9,2.41,2.41,0,0,1,.4,1.5,3.78,3.78,0,0,1-.2,1.2,2.7,2.7,0,0,1-.7.8,3.13,3.13,0,0,1-1,.5,5.28,5.28,0,0,1-1.3.1,6.05,6.05,0,0,1-1.5-.2,3.13,3.13,0,0,1-1-.5,1.93,1.93,0,0,1-.5-.9,3.75,3.75,0,0,1-.1-1.1V213h2v.6Z"></path><use x="102.2" xlink:href="#N"></use><path d="M267.1,207.5v1.2h0a3.92,3.92,0,0,1,.8-1,2.14,2.14,0,0,1,1.2-.4h.4v2.1h-.6a1.27,1.27,0,0,0-.6.1c-.2.1-.4.1-.5.3a1,1,0,0,0-.4.5,1.48,1.48,0,0,0-.1.7v5.2H265v-8.6h2.1Zm3.4,2.4a5.07,5.07,0,0,1,.2-1.3,5.55,5.55,0,0,1,.6-.8,1.54,1.54,0,0,1,1-.4,4.87,4.87,0,0,1,1.2-.1,6.27,6.27,0,0,1,1.6.2,1.93,1.93,0,0,1,.9.5,2.18,2.18,0,0,1,.5.8,3.75,3.75,0,0,1,.1,1.1v4.5a2.22,2.22,0,0,0,.1.9,1.85,1.85,0,0,0,.2.7h-2.1c-.1-.1-.1-.3-.2-.4s-.1-.3-.1-.5h0a3.82,3.82,0,0,1-.9.9,4.41,4.41,0,0,1-1.3.2,3,3,0,0,1-1-.2.9.9,0,0,1-.6-.6,2,2,0,0,1-.4-.8,4.55,4.55,0,0,1,0-1.9,3,3,0,0,1,.4-.8,1.79,1.79,0,0,1,.7-.5,10.37,10.37,0,0,1,1-.4l1.2-.3c.3-.1.6-.2.7-.4a1.17,1.17,0,0,0,.2-.7,1.88,1.88,0,0,0-.2-.8,1,1,0,0,0-.8-.3,1,1,0,0,0-1.1,1.1v.2h-2v.1Zm3.5,2.2c-.2.1-.3.1-.5.2a2.34,2.34,0,0,0-1,.5,1.22,1.22,0,0,0-.3.9,1.88,1.88,0,0,0,.2.8.68.68,0,0,0,.6.4,1.09,1.09,0,0,0,.5-.1.52.52,0,0,0,.4-.2,1.31,1.31,0,0,0,.3-.4,1.27,1.27,0,0,0,.1-.6v-1.7a1.24,1.24,0,0,1-.3.2Zm7-7.1v2.5h1.3V209H281v4.7a1.17,1.17,0,0,0,.2.7.85.85,0,0,0,.6.2h.5v1.5h-1.4a2.79,2.79,0,0,1-1-.1.92.92,0,0,1-.6-.4,4.88,4.88,0,0,1-.3-.7,3.75,3.75,0,0,1-.1-1.1V209h-1.1v-1.5h1.1V205Z"></path><use x="99.5" xlink:href="#Q"></use><path d="M287.1,209.8a3,3,0,0,1,.6-1.4,2.84,2.84,0,0,1,1-.9,3.81,3.81,0,0,1,1.6-.3,3.51,3.51,0,0,1,1.6.3,2.19,2.19,0,0,1,1,.9,3.36,3.36,0,0,1,.5,1.4,11.24,11.24,0,0,1,.2,2,12.31,12.31,0,0,1-.2,2,3,3,0,0,1-.6,1.4,1.89,1.89,0,0,1-1,.8,3.81,3.81,0,0,1-1.6.3,6.27,6.27,0,0,1-1.6-.2,2.72,2.72,0,0,1-1-.8,3.36,3.36,0,0,1-.5-1.4,11.24,11.24,0,0,1-.2-2,12.48,12.48,0,0,1,.2-2.1Zm2.1,3.2a3,3,0,0,0,.2,1,.92.92,0,0,0,.4.6,1.42,1.42,0,0,0,.6.2.86.86,0,0,0,.9-.7,6.33,6.33,0,0,0,.3-2.3,6,6,0,0,0-.3-2.3.93.93,0,0,0-.9-.7.85.85,0,0,0-.6.2,2.09,2.09,0,0,0-.4.6c-.1.3-.1.6-.2,1V213Z"></path><use x="119.5" xlink:href="#P"></use><path d="M305.5 215.7a3.75 3.75 0 0 1-.1 1.1 4.65 4.65 0 0 1-.3.9 1.94 1.94 0 0 1-1.6.9v-1.1a.92.92 0 0 0 .6-.4 1.88 1.88 0 0 0 .2-.8v-.2h-.8v-2.5h2.1v2.1zm5.1-5.8a5.07 5.07 0 0 1 .2-1.3 5.55 5.55 0 0 1 .6-.8 1.78 1.78 0 0 1 1-.4 4.87 4.87 0 0 1 1.2-.1 6.27 6.27 0 0 1 1.6.2 1.93 1.93 0 0 1 .9.5 2.18 2.18 0 0 1 .5.8 3.75 3.75 0 0 1 .1 1.1v4.5a2.22 2.22 0 0 0 .1.9 1.85 1.85 0 0 0 .2.7h-2.1c-.1-.1-.1-.3-.2-.4s-.1-.3-.1-.5h0a3.82 3.82 0 0 1-.9.9 4.41 4.41 0 0 1-1.3.2 3 3 0 0 1-1-.2.9.9 0 0 1-.6-.6 2 2 0 0 1-.4-.8 4.55 4.55 0 0 1 0-1.9 3 3 0 0 1 .4-.8 1.79 1.79 0 0 1 .7-.5 10.37 10.37 0 0 1 1-.4l1.2-.3c.3-.1.6-.2.7-.4a1.17 1.17 0 0 0 .2-.7 1.88 1.88 0 0 0-.2-.8 1 1 0 0 0-.8-.3 1 1 0 0 0-1.1 1.1v.2h-2v.1zm3.6 2.2c-.2.1-.3.1-.5.2a2.34 2.34 0 0 0-1 .5 1.22 1.22 0 0 0-.3.9 1.88 1.88 0 0 0 .2.8.68.68 0 0 0 .6.4 1.09 1.09 0 0 0 .5-.1.52.52 0 0 0 .4-.2 1.38 1.38 0 0 0 .3-.4 1.27 1.27 0 0 0 .1-.6v-1.7a1.44 1.44 0 0 0-.3.2z"></path><use x="155.6" xlink:href="#O"></use><path d="M333.5 216.1h-2.1v-2.5h2.1zm3.7-3.2a1.48 1.48 0 0 0 .1.7 1.42 1.42 0 0 0 .2.6 2.18 2.18 0 0 0 .5.4 1.48 1.48 0 0 0 .7.1 1.68 1.68 0 0 0 1-.3 1.25 1.25 0 0 0 .4-1.1 1.48 1.48 0 0 0-.1-.7 2.19 2.19 0 0 0-.3-.5c-.2-.1-.4-.3-.6-.4a6.89 6.89 0 0 1-1-.4 8.1 8.1 0 0 1-1.3-.6 2.18 2.18 0 0 1-.9-.7 4.7 4.7 0 0 1-.6-.9 5 5 0 0 1-.2-1.2 3.18 3.18 0 0 1 .9-2.5 3.54 3.54 0 0 1 2.6-.8 5.9 5.9 0 0 1 1.4.2 3.7 3.7 0 0 1 1.1.5 2.29 2.29 0 0 1 .7 1 3.19 3.19 0 0 1 .3 1.4v.3h-2.2a2.5 2.5 0 0 0-.3-1.3 1.05 1.05 0 0 0-1-.4c-.3 0-.5 0-.6.1a1.31 1.31 0 0 0-.4.3.76.76 0 0 0-.2.4c0 .2-.1.3-.1.5a2.39 2.39 0 0 0 .2.9 2.12 2.12 0 0 0 1 .7l1.8.8 1.1.6a2.34 2.34 0 0 1 .7.7 1.14 1.14 0 0 1 .3.8 3.08 3.08 0 0 1 .1 1 3 3 0 0 1-1 2.6 5 5 0 0 1-2.9.8 4.25 4.25 0 0 1-2.8-.8 3.19 3.19 0 0 1-.8-2.4v-.5h2.3v.1zm8.8 3.2h-2.1v-2.5h2.1zm10.2-8.7a1.42 1.42 0 0 0-.2-.6 1.76 1.76 0 0 0-.4-.5 1.42 1.42 0 0 0-.6-.2 1.18 1.18 0 0 0-1.2.9 10 10 0 0 0-.4 3.1 11.48 11.48 0 0 0 .1 1.9 5.21 5.21 0 0 0 .2 1.4 1.93 1.93 0 0 0 .5.9 1.14 1.14 0 0 0 .8.3 1.09 1.09 0 0 0 .5-.1c.2-.1.3-.2.5-.3a1.54 1.54 0 0 0 .4-.6 2 2 0 0 0 .1-.8v-1.2H355v-1.7h3.7v6.2H357V215h0a2.51 2.51 0 0 1-2.4 1.3 2.86 2.86 0 0 1-1.7-.4 2.19 2.19 0 0 1-1-1.1 4.78 4.78 0 0 1-.5-1.9 20.92 20.92 0 0 1-.1-2.6 16.86 16.86 0 0 1 .2-2.5 4.78 4.78 0 0 1 .6-1.8 3.18 3.18 0 0 1 1.2-1.1 4.78 4.78 0 0 1 1.8-.4 3.37 3.37 0 0 1 2.7.9 3.65 3.65 0 0 1 .8 2.7h-2.2a2.54 2.54 0 0 1-.2-.7zm3.9 2.4a3 3 0 0 1 .6-1.4 2.84 2.84 0 0 1 1-.9 3.81 3.81 0 0 1 1.6-.3 3.51 3.51 0 0 1 1.6.3 2.19 2.19 0 0 1 1 .9 3.36 3.36 0 0 1 .5 1.4 11.24 11.24 0 0 1 .2 2 12.31 12.31 0 0 1-.2 2 3 3 0 0 1-.6 1.4 1.89 1.89 0 0 1-1 .8 3.81 3.81 0 0 1-1.6.3 6.27 6.27 0 0 1-1.6-.2 2.72 2.72 0 0 1-1-.8 3.36 3.36 0 0 1-.5-1.4 11.24 11.24 0 0 1-.2-2 12.48 12.48 0 0 1 .2-2.1zm2 3.2a3 3 0 0 0 .2 1 .92.92 0 0 0 .4.6 1.42 1.42 0 0 0 .6.2.86.86 0 0 0 .9-.7 6.33 6.33 0 0 0 .3-2.3 6 6 0 0 0-.3-2.3.93.93 0 0 0-.9-.7.85.85 0 0 0-.6.2 2.09 2.09 0 0 0-.4.6c-.1.3-.1.6-.2 1v2.4zm12.2-5.5l-2.2 8.6h-2.6l-2.2-8.6h2.3l1.2 6.2h0l1.2-6.2zm2.9 5.3a1.48 1.48 0 0 0 .1.7 1.07 1.07 0 0 0 .2.6 1.31 1.31 0 0 0 .3.4.76.76 0 0 0 .5.2.81.81 0 0 0 .8-.4 3.37 3.37 0 0 0 .4-1.2h2a2.8 2.8 0 0 1-3.1 3.1 3.58 3.58 0 0 1-1.9-.4 2.66 2.66 0 0 1-1-1.1 5.41 5.41 0 0 1-.4-1.5c0-.5-.1-1.1-.1-1.6a9.7 9.7 0 0 1 .1-1.7 3.36 3.36 0 0 1 .5-1.4 3.18 3.18 0 0 1 1-1 4 4 0 0 1 1.8-.4 3.81 3.81 0 0 1 1.6.3 2.84 2.84 0 0 1 1 .9 4.57 4.57 0 0 1 .5 1.4 9.72 9.72 0 0 1 .1 1.8v.5h-4.4v.8zm2.2-2.9a.85.85 0 0 0-.2-.6 1.38 1.38 0 0 0-.3-.4c-.1-.1-.3-.1-.6-.1a1.42 1.42 0 0 0-.6.2c-.1.1-.3.2-.3.4a4.17 4.17 0 0 0-.2.6c0 .2-.1.4-.1.6v.3h2.3v-1zm5.6-2.4v1.2h0a3.92 3.92 0 0 1 .8-1 2.14 2.14 0 0 1 1.2-.4h.4v2.1h-.6a1.27 1.27 0 0 0-.6.1c-.2.1-.4.1-.5.3a1 1 0 0 0-.4.5 1.48 1.48 0 0 0-.1.7v5.2H383v-8.6h2z"></path><use x="212.8" xlink:href="#P"></use><path d="M398.6,207.5v.9h0a2.17,2.17,0,0,1,.9-.8,2.38,2.38,0,0,1,1.2-.3,2,2,0,0,1,1.3.4,1.83,1.83,0,0,1,.7,1h0a1.65,1.65,0,0,1,.8-1,2.9,2.9,0,0,1,1.4-.3,1.75,1.75,0,0,1,1.6.7,3.31,3.31,0,0,1,.5,1.9v6.3h-2v-6a1.55,1.55,0,0,0-.2-.8.78.78,0,0,0-.7-.3.81.81,0,0,0-.8.4,1.61,1.61,0,0,0-.3,1.1v5.7h-2.2v-6a1.55,1.55,0,0,0-.2-.8.78.78,0,0,0-.7-.3.81.81,0,0,0-.8.4,1.61,1.61,0,0,0-.3,1.1v5.7h-2.2v-8.6h2Zm12.1,5.3a1.48,1.48,0,0,0,.1.7,1.07,1.07,0,0,0,.2.6,1.31,1.31,0,0,0,.3.4.76.76,0,0,0,.5.2.81.81,0,0,0,.8-.4,3.37,3.37,0,0,0,.4-1.2h2a2.8,2.8,0,0,1-3.1,3.1,3.58,3.58,0,0,1-1.9-.4,2.66,2.66,0,0,1-1-1.1,5.41,5.41,0,0,1-.4-1.5c0-.5-.1-1.1-.1-1.6a9.7,9.7,0,0,1,.1-1.7,2.92,2.92,0,0,1,.5-1.4,3.18,3.18,0,0,1,1-1,4,4,0,0,1,1.8-.4,3.81,3.81,0,0,1,1.6.3,2.84,2.84,0,0,1,1,.9,4.57,4.57,0,0,1,.5,1.4,9.72,9.72,0,0,1,.1,1.8v.5h-4.4v.8Zm2.2-2.9a.85.85,0,0,0-.2-.6,1.38,1.38,0,0,0-.3-.4c-.1-.1-.3-.1-.6-.1a1.42,1.42,0,0,0-.6.2c-.1.1-.3.2-.3.4a4.17,4.17,0,0,0-.2.6c0,.2-.1.4-.1.6v.3h2.3v-1Z"></path><use x="240.8" xlink:href="#P"></use><path d="M427.2 205v2.5h1.3v1.5h-1.3v4.7a1.17 1.17 0 0 0 .2.7.85.85 0 0 0 .6.2h.5v1.5h-1.4a2.79 2.79 0 0 1-1-.1.92.92 0 0 1-.6-.4 4.88 4.88 0 0 1-.3-.7 3.75 3.75 0 0 1-.1-1.1V209H424v-1.5h1.1V205zm10.8-.3l3 11.4h-2.4l-.5-2.4h-3l-.5 2.4h-2.4l3-11.4zm-.3 7.1l-1.1-5.1h0l-1.1 5.1zm10.6 3.9a3.74 3.74 0 0 1-.8 2.5 4.83 4.83 0 0 1-5 .2 2.14 2.14 0 0 1-.8-1.7h2.1a.91.91 0 0 0 .3.7c.1.1.2.1.3.2s.3.1.4.1c.4 0 .8-.1.9-.4a1.8 1.8 0 0 0 .3-1.1v-1.1h0a3 3 0 0 1-.8.8 2 2 0 0 1-1 .3 2.22 2.22 0 0 1-2-1 6.91 6.91 0 0 1-.7-3.4 7.57 7.57 0 0 1 .1-1.5 5.73 5.73 0 0 1 .4-1.4 2.72 2.72 0 0 1 .8-1 2.12 2.12 0 0 1 1.4-.4 2.24 2.24 0 0 1 1 .3 2.39 2.39 0 0 1 .8.9h0v-1h2.1v8zm-4.3-2.8a1.45 1.45 0 0 0 .2.7 2.19 2.19 0 0 0 .3.5.85.85 0 0 0 .6.2 1.42 1.42 0 0 0 .6-.2 1 1 0 0 0 .4-.5 1.88 1.88 0 0 0 .2-.8c0-.3.1-.6.1-1a10.18 10.18 0 0 0-.2-2.2 1.07 1.07 0 0 0-.9-.7 1.42 1.42 0 0 0-.6.2 2.18 2.18 0 0 0-.4.5 8.66 8.66 0 0 0-.2 1v1.5a.78.78 0 0 0-.1.8zm7.9-.1a1.48 1.48 0 0 0 .1.7 1.07 1.07 0 0 0 .2.6 1.31 1.31 0 0 0 .3.4.76.76 0 0 0 .5.2.81.81 0 0 0 .8-.4 3.37 3.37 0 0 0 .4-1.2h2a2.8 2.8 0 0 1-3.1 3.1 3.58 3.58 0 0 1-1.9-.4 2.66 2.66 0 0 1-1-1.1 5.41 5.41 0 0 1-.4-1.5c0-.5-.1-1.1-.1-1.6a9.7 9.7 0 0 1 .1-1.7 3.36 3.36 0 0 1 .5-1.4 3.18 3.18 0 0 1 1-1 4 4 0 0 1 1.8-.4 3.81 3.81 0 0 1 1.6.3 2.84 2.84 0 0 1 1 .9 4.57 4.57 0 0 1 .5 1.4 9.72 9.72 0 0 1 .1 1.8v.5h-4.4v.8zm2.2-2.9a.85.85 0 0 0-.2-.6 1.38 1.38 0 0 0-.3-.4c-.1-.1-.3-.1-.6-.1a1.42 1.42 0 0 0-.6.2c-.1.1-.3.2-.3.4a4.17 4.17 0 0 0-.2.6c0 .2-.1.4-.1.6v.3h2.3a1.7 1.7 0 0 0 0-1z"></path><use x="282" xlink:href="#P"></use><path d="M469.9 210c0-.2-.1-.4-.1-.6a1.38 1.38 0 0 0-.3-.4.76.76 0 0 0-.5-.2 1.45 1.45 0 0 0-.7.2 1 1 0 0 0-.4.5 6.37 6.37 0 0 0-.2.9v2.7a2 2 0 0 0 .2.9 1 1 0 0 0 .4.5 1.42 1.42 0 0 0 .6.2.89.89 0 0 0 .8-.5 2.81 2.81 0 0 0 .3-1.5h2.1a4 4 0 0 1-.8 2.6 3 3 0 0 1-2.5.9 5.21 5.21 0 0 1-1.4-.2 1.83 1.83 0 0 1-1-.7 2.59 2.59 0 0 1-.6-1.4 12.73 12.73 0 0 1-.2-2.2 6.87 6.87 0 0 1 .3-2.2 4.58 4.58 0 0 1 .7-1.4 2.59 2.59 0 0 1 1.1-.7 5.9 5.9 0 0 1 1.4-.2 2.87 2.87 0 0 1 2.3.9 3.65 3.65 0 0 1 .8 2.4h-2.1c-.2-.1-.2-.3-.2-.5zm3.7 7.3a1.22 1.22 0 0 0 .9-.3 1.14 1.14 0 0 0 .3-.8l-2.4-8.6h2.3l1.3 6h0l1.1-6h2.2l-2.1 8a10.72 10.72 0 0 1-.6 1.7 4.37 4.37 0 0 1-.6 1 1.93 1.93 0 0 1-.9.5 4.89 4.89 0 0 1-1.3.1h-.8v-1.6c.2-.1.4 0 .6 0zM104.1 93H127l29.8 52.8h.2V93h21v85.7h-22.9l-29.8-53.4h-.2v53.4h-21zm146 30.6c-1.2-8.6-7.9-13.2-17.3-13.2-14.4 0-19.9 12.7-19.9 25.4s5.5 25.4 19.9 25.4c10.4 0 16.4-6 17.3-15.8h22.3c-1.2 22.1-17.4 35-39.1 35-25.9 0-42.7-19.8-42.7-44.6s16.8-44.6 42.7-44.6c18.5 0 38.5 11.8 39.1 32.4zm108.2 19.7c0 24.8-11.4 37.2-37.3 37.2s-37.3-12.4-37.3-37.2V93H306v51.6c0 11 4.1 16.7 15 16.7s15-5.6 15-16.7V93h22.3v50.3zM396.5 93h22.7l32 85.7H428l-5.3-15.4h-29.9l-5.4 15.4h-22.9l32-85.7zm1.5 53.8h19.4l-9.5-30h-.2z"></path><defs><path d="M115.5 40.8a3 3 0 0 1 .6-1.4 2.84 2.84 0 0 1 1-.9 3.81 3.81 0 0 1 1.6-.3 3.51 3.51 0 0 1 1.6.3 2.19 2.19 0 0 1 1 .9 3.36 3.36 0 0 1 .5 1.4 11.24 11.24 0 0 1 .2 2 12.31 12.31 0 0 1-.2 2 3 3 0 0 1-.6 1.4 1.89 1.89 0 0 1-1 .8 3.81 3.81 0 0 1-1.6.3 6.27 6.27 0 0 1-1.6-.2 2.72 2.72 0 0 1-1-.8 3.36 3.36 0 0 1-.5-1.4 11.24 11.24 0 0 1-.2-2 12.48 12.48 0 0 1 .2-2.1zm2.1 3.2a3 3 0 0 0 .2 1 .92.92 0 0 0 .4.6 1.42 1.42 0 0 0 .6.2.86.86 0 0 0 .9-.7 6.33 6.33 0 0 0 .3-2.3 6 6 0 0 0-.3-2.3.93.93 0 0 0-.9-.7.85.85 0 0 0-.6.2c-.2.1-.3.4-.4.6s-.1.6-.2 1v1.2a4.82 4.82 0 0 0 0 1.2z" id="B"></path><path d="M127.8,46.1a2,2,0,0,1-.9.9,2.77,2.77,0,0,1-1.3.3,2.11,2.11,0,0,1-1.6-.6,2.44,2.44,0,0,1-.6-1.8V38.5h2.2v5.9a1.69,1.69,0,0,0,.2.9.78.78,0,0,0,.7.3c.8,0,1.2-.5,1.2-1.4V38.5h2.2v8.6h-2.1v-1Z" id="C"></path><path d="M133.7,38.5v1.2h0a3.92,3.92,0,0,1,.8-1,1.59,1.59,0,0,1,1.2-.4h.4v2.1h-.6a1.27,1.27,0,0,0-.6.1c-.2.1-.4.1-.5.3a1,1,0,0,0-.4.5,1.48,1.48,0,0,0-.1.7v5.2h-2.2V38.6h2Z" id="D"></path><path d="M142.7,44.6a1.06,1.06,0,0,0,1.2,1.2,1.14,1.14,0,0,0,.8-.3,1,1,0,0,0,.3-.8.85.85,0,0,0-.2-.6c-.2-.1-.3-.3-.6-.3l-1.6-.6a2.84,2.84,0,0,1-1.4-.9,2.46,2.46,0,0,1-.5-1.5,3,3,0,0,1,.2-1,1.56,1.56,0,0,1,.6-.8l1-.6a5.9,5.9,0,0,1,1.4-.2,3.4,3.4,0,0,1,2.2.6,2.14,2.14,0,0,1,.7,1.8V41h-2a2.51,2.51,0,0,0-.2-1c-.1-.2-.4-.3-.8-.3a1.45,1.45,0,0,0-.7.2.91.91,0,0,0-.3.7,1.42,1.42,0,0,0,.2.6c.1.2.4.3.8.4l1.3.4a2.75,2.75,0,0,1,1.5.9,2.41,2.41,0,0,1,.4,1.5,3.78,3.78,0,0,1-.2,1.2,2.7,2.7,0,0,1-.7.8,3.13,3.13,0,0,1-1,.5,5.28,5.28,0,0,1-1.3.1,6.05,6.05,0,0,1-1.5-.2,3.13,3.13,0,0,1-1-.5,1.93,1.93,0,0,1-.5-.9,3.75,3.75,0,0,1-.1-1.1V44h2v.6Z" id="E"></path><path d="M201.9,43.8a1.48,1.48,0,0,0,.1.7,1.07,1.07,0,0,0,.2.6,1.31,1.31,0,0,0,.3.4.76.76,0,0,0,.5.2.81.81,0,0,0,.8-.4,3.37,3.37,0,0,0,.4-1.2h2a2.8,2.8,0,0,1-3.1,3.1,3.58,3.58,0,0,1-1.9-.4,2.66,2.66,0,0,1-1-1.1,5.41,5.41,0,0,1-.4-1.5c0-.5-.1-1.1-.1-1.6a9.7,9.7,0,0,1,.1-1.7,3.36,3.36,0,0,1,.5-1.4,3.18,3.18,0,0,1,1-1,4,4,0,0,1,1.8-.4,3.81,3.81,0,0,1,1.6.3,2.84,2.84,0,0,1,1,.9,4.57,4.57,0,0,1,.5,1.4,9.72,9.72,0,0,1,.1,1.8V43h-4.4v.8Zm2.2-2.9a.85.85,0,0,0-.2-.6,1.31,1.31,0,0,0-.3-.4c-.1-.1-.3-.1-.6-.1a1.42,1.42,0,0,0-.6.2c-.1.1-.3.2-.3.4a4.17,4.17,0,0,0-.2.6c0,.2-.1.4-.1.6v.3h2.3v-1Z" id="F"></path><path d="M400.9 39.5a9 9 0 0 1 .4-1.9 2.37 2.37 0 0 1 1.1-1.3 3.68 3.68 0 0 1 2-.5 4 4 0 0 1 1.7.3 2.13 2.13 0 0 1 1.1 1 3.78 3.78 0 0 1 .6 1.7 17.41 17.41 0 0 1 .2 2.6l-.1 2.3a9 9 0 0 1-.4 1.9 2.37 2.37 0 0 1-1.1 1.3 3.68 3.68 0 0 1-2 .5 4 4 0 0 1-1.7-.3 2.44 2.44 0 0 1-1.1-.9 3.78 3.78 0 0 1-.6-1.7 17.41 17.41 0 0 1-.2-2.6l.1-2.4zm2.3 4.6a3.09 3.09 0 0 0 .2 1.1.7.7 0 0 0 .4.5 1.27 1.27 0 0 0 .6.1.85.85 0 0 0 .6-.2.92.92 0 0 0 .4-.6 3.78 3.78 0 0 0 .2-1.2c0-.5.1-1.1.1-1.8v-1.2a9.72 9.72 0 0 0-.1-1.8 3.09 3.09 0 0 0-.2-1.1.7.7 0 0 0-.4-.5 1.27 1.27 0 0 0-.6-.1.85.85 0 0 0-.6.2.92.92 0 0 0-.4.6 3.78 3.78 0 0 0-.2 1.2c0 .5-.1 1.1-.1 1.8v1.2a9.72 9.72 0 0 0 .1 1.8z" id="G"></path><path d="M147.4,53.7v3.7h0a2.25,2.25,0,0,1,2.1-1.1,2.11,2.11,0,0,1,1.6.6,2.55,2.55,0,0,1,.6,1.9v6.4h-2.2V59.3a1.69,1.69,0,0,0-.2-.9.78.78,0,0,0-.7-.3c-.8,0-1.2.5-1.2,1.4v5.7h-2.2V53.8h2.2Z" id="H"></path><path d="M209.4,54v2.5h1.3V58h-1.3v4.7a1.17,1.17,0,0,0,.2.7.85.85,0,0,0,.6.2h.5v1.5h-1.4a2.79,2.79,0,0,1-1-.1.92.92,0,0,1-.6-.4,4.88,4.88,0,0,1-.3-.7,3.75,3.75,0,0,1-.1-1.1V58h-1.1V56.5h1.1V54Z" id="I"></path><path d="M233.7,56.5v1h0a2,2,0,0,1,.9-.9,2.77,2.77,0,0,1,1.3-.3,2.11,2.11,0,0,1,1.6.6,2.55,2.55,0,0,1,.6,1.9v6.4h-2.2V59.3a1.69,1.69,0,0,0-.2-.9.78.78,0,0,0-.7-.3c-.8,0-1.2.5-1.2,1.4v5.7h-2.2V56.6h2.1Z" id="J"></path><path d="M244.2 64.2a1.55 1.55 0 0 1-.8.8 2 2 0 0 1-1.1.2 2.12 2.12 0 0 1-2-1 7.1 7.1 0 0 1-.6-3.4 7.57 7.57 0 0 1 .6-3.5 2.19 2.19 0 0 1 2-1.1 2 2 0 0 1 1.9 1.1h0v-3.6h2.2v11.4h-2.1l-.1-.9zm-2.2-1.3a.86.86 0 0 0 .9.7 1 1 0 0 0 1-.7 11.12 11.12 0 0 0 0-4.2.9.9 0 0 0-1-.7.8.8 0 0 0-.9.7 10.6 10.6 0 0 0-.2 2.1 6.19 6.19 0 0 0 .2 2.1z" id="K"></path><path d="M261.6,56.5v1.2h0a3.92,3.92,0,0,1,.8-1,1.59,1.59,0,0,1,1.2-.4h.4v2.1h-.6a1.27,1.27,0,0,0-.6.1c-.2.1-.4.1-.5.3a1,1,0,0,0-.4.5,1.48,1.48,0,0,0-.1.7v5.2h-2.2V56.6h2Z" id="L"></path><path d="M325.3,61.8a1.48,1.48,0,0,0,.1.7,1.07,1.07,0,0,0,.2.6,1.31,1.31,0,0,0,.3.4.76.76,0,0,0,.5.2.81.81,0,0,0,.8-.4,3.37,3.37,0,0,0,.4-1.2h2a2.8,2.8,0,0,1-3.1,3.1,3.58,3.58,0,0,1-1.9-.4,2.66,2.66,0,0,1-1-1.1,5.41,5.41,0,0,1-.4-1.5c0-.5-.1-1.1-.1-1.6a9.7,9.7,0,0,1,.1-1.7,3.36,3.36,0,0,1,.5-1.4,3.18,3.18,0,0,1,1-1,4,4,0,0,1,1.8-.4,3.81,3.81,0,0,1,1.6.3,2.84,2.84,0,0,1,1,.9,4.57,4.57,0,0,1,.5,1.4,9.72,9.72,0,0,1,.1,1.8V61h-4.4v.8Zm2.2-2.9a.85.85,0,0,0-.2-.6,1.38,1.38,0,0,0-.3-.4c-.1-.1-.3-.1-.6-.1a1.42,1.42,0,0,0-.6.2c-.1.1-.3.2-.3.4a4.17,4.17,0,0,0-.2.6c0,.2-.1.4-.1.6v.3h2.3v-1Z" id="M"></path><path d="M160.6,205v2.5h1.3V209h-1.3v4.7a1.17,1.17,0,0,0,.2.7.85.85,0,0,0,.6.2h.5v1.5h-1.4a2.79,2.79,0,0,1-1-.1.92.92,0,0,1-.6-.4,4.88,4.88,0,0,1-.3-.7,3.75,3.75,0,0,1-.1-1.1V209h-1.1v-1.5h1.1V205Z" id="N"></path><path d="M169.1,212.6a2,2,0,0,0,.1.8,1.42,1.42,0,0,0,.2.6.78.78,0,0,0,.4.4,1.33,1.33,0,0,0,1.4,0,.78.78,0,0,0,.4-.4,1.42,1.42,0,0,0,.2-.6c0-.2.1-.5.1-.8v-8h2.3v8a4.84,4.84,0,0,1-.3,1.8,3.13,3.13,0,0,1-.8,1.1,2.28,2.28,0,0,1-1.2.6,6.15,6.15,0,0,1-1.4.1,6.6,6.6,0,0,1-1.4-.1,6.12,6.12,0,0,1-1.2-.5,3.13,3.13,0,0,1-.8-1.1,5,5,0,0,1-.3-1.9v-8h2.3v8Z" id="O"></path><path d="M177.7,207.5v1h0a2,2,0,0,1,.9-.9,2.77,2.77,0,0,1,1.3-.3,2.11,2.11,0,0,1,1.6.6,2.55,2.55,0,0,1,.6,1.9v6.4h-2.2v-5.9a1.69,1.69,0,0,0-.2-.9.78.78,0,0,0-.7-.3c-.8,0-1.2.5-1.2,1.4v5.7h-2.2v-8.6h2.1Z" id="P"></path><path d="M186,204.5v1.9h-2.2v-1.9Zm0,3v8.6h-2.2v-8.6Z" id="Q"></path></defs></svg>