<svg viewbox="0 0 306.698 321.4863" xmlns="http://www.w3.org/2000/svg"><defs><style>.a{fill:#333;}</style></defs><polygon class="a" points="258.322 194.876 258.322 93.11 153.344 38.34 47.193 93.11 47.193 194.876 258.686 194.876 288.438 225.087 16.963 225.087 16.963 110.691 0 110.452 0 78.499 153.344 0 306.698 78.499 306.698 110.452 288.438 110.452 288.6 225.087 258.322 194.876"></polygon><rect class="a" height="27.4809" width="99.042" x="103.1509" y="141.7915"></rect><rect class="a" height="27.4722" width="99.4917" x="103.1509" y="92.3828"></rect><path class="a" d="M4.2279,303.1807A25.4213,25.4213,0,0,1,6.12,292.6455a14.2649,14.2649,0,0,1,4.9438-6.1641,13.0727,13.0727,0,0,1,7.3975-2.0263,12.6938,12.6938,0,0,1,10.2661,4.8095q3.9668,4.8108,3.9673,13.6963,0,8.9854-4.1992,14.0381a12.2931,12.2931,0,0,1-10.01,4.4678,12.4034,12.4034,0,0,1-10.0586-4.419Q4.2274,311.9942,4.2279,303.1807Zm6.1035-.2442q0,6.1773,2.3472,9.2656a7.0668,7.0668,0,0,0,5.8193,3.0879,6.9769,6.9769,0,0,0,5.7949-3.0644q2.2977-3.063,2.2984-9.4112,0-6.2254-2.2373-9.2041a6.9884,6.9884,0,0,0-5.856-2.9785,7.0651,7.0651,0,0,0-5.8926,3.003Q10.3312,296.6377,10.3314,302.9365Z"></path><path class="a" d="M37.3334,320.8564v-35.791h9.5214a29.1147,29.1147,0,0,1,6.958.5127,7.89,7.89,0,0,1,4.3091,3.54,12.9766,12.9766,0,0,1,1.6968,6.9824,13.1935,13.1935,0,0,1-1.4648,6.5058,8.5127,8.5127,0,0,1-3.6621,3.6875q-2.1973,1.0607-7.5684,1.0616H43.2416v13.5009ZM43.2416,291.12v10.1807h3.2793a14.3067,14.3067,0,0,0,4.49-.4649,4.004,4.004,0,0,0,1.9453-1.6767,6.19,6.19,0,0,0-.0244-5.9834,3.865,3.865,0,0,0-1.9331-1.64,17.6972,17.6972,0,0,0-4.87-.416Z"></path><path class="a" d="M64.6771,320.8564v-35.791h9.5215a29.1147,29.1147,0,0,1,6.958.5127,7.89,7.89,0,0,1,4.3091,3.54,12.9778,12.9778,0,0,1,1.6968,6.9824,13.1922,13.1922,0,0,1-1.4649,6.5058,8.5111,8.5111,0,0,1-3.6621,3.6875q-2.1972,1.0607-7.5684,1.0616H70.5853v13.5009ZM70.5853,291.12v10.1807h3.2793a14.3037,14.3037,0,0,0,4.49-.4649A4.004,4.004,0,0,0,80.3,299.1592a6.1907,6.1907,0,0,0-.0245-5.9834,3.8655,3.8655,0,0,0-1.9331-1.64,17.6972,17.6972,0,0,0-4.87-.416Z"></path><path class="a" d="M90.8246,303.1807a25.4194,25.4194,0,0,1,1.8921-10.5352,14.2649,14.2649,0,0,1,4.9438-6.1641,13.0727,13.0727,0,0,1,7.3975-2.0263,12.6938,12.6938,0,0,1,10.2661,4.8095q3.9667,4.8108,3.9673,13.6963,0,8.9854-4.1993,14.0381a12.2928,12.2928,0,0,1-10.01,4.4678,12.4031,12.4031,0,0,1-10.0586-4.419Q90.8241,311.9942,90.8246,303.1807Zm6.1035-.2442q0,6.1773,2.3471,9.2656a7.0668,7.0668,0,0,0,5.8194,3.0879,6.9769,6.9769,0,0,0,5.7949-3.0644q2.2976-3.063,2.2983-9.4112,0-6.2254-2.2373-9.2041a6.9882,6.9882,0,0,0-5.8559-2.9785,7.0651,7.0651,0,0,0-5.8926,3.003Q96.9279,296.6377,96.9281,302.9365Z"></path><path class="a" d="M123.9544,320.8564v-35.791H136.43q4.785,0,6.836.9649a7.5823,7.5823,0,0,1,3.3691,3.3437,11.6038,11.6038,0,0,1,1.3184,5.7012,10.6353,10.6353,0,0,1-2.0142,6.7627,8.9592,8.9592,0,0,1-5.7251,3.2226,14.8074,14.8074,0,0,1,3.1494,2.9913,42.3406,42.3406,0,0,1,3.3936,5.8222l3.5644,6.9824h-7.0688l-4.2881-7.788a51.4062,51.4062,0,0,0-3.145-5.2862,4.67,4.67,0,0,0-1.7578-1.4648,8.06,8.06,0,0,0-2.9785-.4024h-1.2207v14.9414Zm5.9083-20.6543h4.3945a22.0259,22.0259,0,0,0,5.1269-.3535,3.2751,3.2751,0,0,0,1.7823-1.4287,5.2632,5.2632,0,0,0,.6836-2.8564,4.9216,4.9216,0,0,0-.6836-2.7461,3.4844,3.4844,0,0,0-1.8555-1.4287,23.4824,23.4824,0,0,0-4.81-.2686h-4.6386Z"></path><path class="a" d="M160.1361,320.8564V291.12H151.42v-6.0547h23.3154V291.12H166.044v29.7363Z"></path><path class="a" d="M178.52,285.0654h5.9082V304.45a47.5286,47.5286,0,0,0,.2207,5.8838,5.958,5.958,0,0,0,1.8711,3.6621,6.5577,6.5577,0,0,0,7.2539.3779,4.5836,4.5836,0,0,0,1.7744-2.539,31.2524,31.2524,0,0,0,.4766-6.97v-19.8h5.9082v18.7989a49.6937,49.6937,0,0,1-.7686,10.4121,8.85,8.85,0,0,1-3.4668,5.2011,11.7116,11.7116,0,0,1-7.1172,1.9893,13.2532,13.2532,0,0,1-7.165-1.6475A9.3594,9.3594,0,0,1,179.68,315.18q-1.16-2.9913-1.16-11.0235Z"></path><path class="a" d="M208.2318,320.8564v-35.791h5.7617l12.0117,23.9014V285.0654h5.5176v35.791h-5.957l-11.8164-23.34v23.34Z"></path><path class="a" d="M237.5775,320.8564v-35.791h5.9082v35.791Z"></path><path class="a" d="M255.766,320.8564V291.12H247.05v-6.0547h23.3154V291.12H261.674v29.7363Z"></path><path class="a" d="M281.9134,320.8564V305.7881l-10.7422-20.7227h6.9336L285,299.2187l6.8008-14.1533h6.8116l-10.7911,20.7715v15.0195Z"></path><path class="a" d="M9.6214,269.9121V239.8477h18.293v5.0859h-13.33v6.665H26.9711v5.0655H14.5843v8.1621H28.3656v5.0859Z"></path><path class="a" d="M52.4212,266.0977A16.1238,16.1238,0,0,0,56.4,268.6406l-1.8252,4.2862a10.8789,10.8789,0,0,1-2.1739-1.1075q-.246-.1437-3.3427-2.6865a11.7422,11.7422,0,0,1-5.5782,1.292,10.6388,10.6388,0,0,1-8.6235-3.9893q-3.2914-3.9873-3.2915-11.5556,0-7.5879,3.3149-11.5664a10.7658,10.7658,0,0,1,8.6924-3.9785,10.633,10.633,0,0,1,8.61,3.9892q3.2944,3.9888,3.2944,11.5557a23.8621,23.8621,0,0,1-.7334,6.3164A15.746,15.746,0,0,1,52.4212,266.0977Zm-3.999-3.4249Q50.35,260.0069,50.35,254.9q0-5.2911-1.91-7.834a6.0189,6.0189,0,0,0-9.8276,0q-1.92,2.5429-1.92,7.8135,0,5.3524,1.9174,7.9267a5.752,5.752,0,0,0,4.7681,2.5733,4.9226,4.9226,0,0,0,2.03-.4307,13.9425,13.9425,0,0,0-3.0762-1.8867l1.3945-3.4658A16.1646,16.1646,0,0,1,48.4222,262.6728Z"></path><path class="a" d="M59.3324,239.8477h4.9629v16.2832a40.0375,40.0375,0,0,0,.185,4.9423,5.0094,5.0094,0,0,0,1.5718,3.0762,5.5084,5.5084,0,0,0,6.0933.3174,3.8434,3.8434,0,0,0,1.49-2.1328,26.2043,26.2043,0,0,0,.4009-5.8545V239.8477h4.9629v15.791a41.7427,41.7427,0,0,1-.646,8.7461,7.4286,7.4286,0,0,1-2.9121,4.3691,9.8347,9.8347,0,0,1-5.9781,1.6709,11.1356,11.1356,0,0,1-6.019-1.3838,7.8655,7.8655,0,0,1-3.1377-3.8965q-.9741-2.5122-.9741-9.26Z"></path><path class="a" d="M106.48,269.9121h-5.396l-2.1586-6.8086H89.056l-2.0381,6.8086h-5.291l9.6-30.0644h5.2715Zm-9.1572-11.8945L93.919,246.8613l-3.34,11.1563Z"></path><path class="a" d="M109.2279,269.9121V240.0937h4.9629v24.7325h12.3867v5.0859Z"></path><path class="a" d="M139.1283,269.9121V239.8477h4.9629v11.833h9.7822v-11.833h4.9629v30.0644h-4.9629V256.7666h-9.7822v13.1455Z"></path><path class="a" d="M162.9584,255.0644a21.3549,21.3549,0,0,1,1.59-8.85,11.9817,11.9817,0,0,1,4.1523-5.1777,10.98,10.98,0,0,1,6.2139-1.7021,10.6621,10.6621,0,0,1,8.624,4.04q3.3325,4.04,3.3321,11.5049,0,7.5468-3.5274,11.792a11.3832,11.3832,0,0,1-16.0775.8171q-.4085-.369-.78-.7761Q162.9584,262.4677,162.9584,255.0644Zm5.1269-.205q0,5.1885,1.9717,7.7832a5.9359,5.9359,0,0,0,4.8887,2.5937,5.8575,5.8575,0,0,0,4.8671-2.5742q1.9308-2.5722,1.9307-7.9053,0-5.2293-1.8789-7.7314a5.87,5.87,0,0,0-4.9189-2.502,5.9357,5.9357,0,0,0-4.95,2.5225q-1.91,2.5224-1.91,7.8135Z"></path><path class="a" d="M190.7259,239.8477h4.9629v16.2832a39.8616,39.8616,0,0,0,.1856,4.9423,5.006,5.006,0,0,0,1.5713,3.0762,5.5091,5.5091,0,0,0,6.0937.3174,3.8448,3.8448,0,0,0,1.49-2.1328,26.24,26.24,0,0,0,.4-5.8545V239.8477h4.9629v15.791a41.7428,41.7428,0,0,1-.6455,8.7461,7.4274,7.4274,0,0,1-2.9121,4.3691,9.8357,9.8357,0,0,1-5.9785,1.6709,11.1344,11.1344,0,0,1-6.0186-1.3838,7.867,7.867,0,0,1-3.1377-3.8965q-.9741-2.5122-.9746-9.26Z"></path><path class="a" d="M214.3714,260.1094l4.86-.5742q.82,5.7625,5.373,5.7626a5.0642,5.0642,0,0,0,3.5479-1.1787,3.7942,3.7942,0,0,0,1.292-2.9209,3.2065,3.2065,0,0,0-.4512-1.7421,3.3211,3.3211,0,0,0-1.374-1.1788,38.3486,38.3486,0,0,0-4.4707-1.5468,15.1162,15.1162,0,0,1-4.6553-2.0889,7.9235,7.9235,0,0,1-2.3476-2.9609,9.0706,9.0706,0,0,1-.8721-3.9444,8.8,8.8,0,0,1,1.1181-4.4258,7.31,7.31,0,0,1,3.086-2.9716,10.626,10.626,0,0,1,4.86-1.0039,8.5434,8.5434,0,0,1,9.3725,9.105l-4.9834.2666a5.3849,5.3849,0,0,0-1.415-3.3838,4.5175,4.5175,0,0,0-3.0967-.9638,4.9817,4.9817,0,0,0-3.0967.8379,2.5432,2.5432,0,0,0-1.0869,2.0859,2.606,2.606,0,0,0,.9873,2.0645,13.9826,13.9826,0,0,0,4.5332,1.8437,18.6127,18.6127,0,0,1,5.4229,2.2871,7.7906,7.7906,0,0,1,2.5517,3.0957,10.88,10.88,0,0,1,.8809,4.6035,9.4537,9.4537,0,0,1-2.4092,6.5821q-2.41,2.6643-7.5371,2.665Q215.3968,270.4249,214.3714,260.1094Z"></path><path class="a" d="M238.4476,269.9121V239.8477h4.9629v30.0644Z"></path><path class="a" d="M248.23,269.9121V239.8477h4.84l10.09,20.0771V239.8477h4.6348v30.0644H262.79l-9.9258-19.6055v19.6055Z"></path><path class="a" d="M284.5082,258.8789V253.793h10.7255V265.77a13.143,13.143,0,0,1-4.5937,3.2813,14.1159,14.1159,0,0,1-5.9678,1.374,11.639,11.639,0,0,1-6.4394-1.7939,12.1608,12.1608,0,0,1-4.419-5.3731,20.1522,20.1522,0,0,1-1.6308-8.4189,19.9039,19.9039,0,0,1,1.6513-8.49,12.4118,12.4118,0,0,1,4.2862-5.27,11.1671,11.1671,0,0,1,6.3056-1.7431,9.694,9.694,0,0,1,10.4795,8.8388l-4.9219,1.128a6.3775,6.3775,0,0,0-2.03-3.5479,5.3328,5.3328,0,0,0-3.5274-1.23,6.2709,6.2709,0,0,0-5.1474,2.4707q-1.9687,2.4726-1.9688,7.5371,0,5.4345,2.1328,8.2647a5.8487,5.8487,0,0,0,4.9424,2.44,7.56,7.56,0,0,0,3.0254-.6845,9.4473,9.4473,0,0,0,2.7988-1.87V258.88Z"></path></svg>